<?xml version="1.0" encoding="UTF-8" standalone="no"?>
<svg
   id="Layer_1"
   version="1.1"
   viewBox="0 0 243.7 841.89"
   sodipodi:docname="4330a67a-338b-4f12-bd43-c12bf6898884.svgz"
   xmlns:inkscape="http://www.inkscape.org/namespaces/inkscape"
   xmlns:sodipodi="http://sodipodi.sourceforge.net/DTD/sodipodi-0.dtd"
   xmlns="http://www.w3.org/2000/svg"
   xmlns:svg="http://www.w3.org/2000/svg">
  <sodipodi:namedview
     id="namedview1"
     pagecolor="#ffffff"
     bordercolor="#000000"
     borderopacity="0.25"
     inkscape:showpageshadow="2"
     inkscape:pageopacity="0.0"
     inkscape:pagecheckerboard="0"
     inkscape:deskcolor="#d1d1d1" />
  <!-- Generator: Adobe Illustrator 29.5.1, SVG Export Plug-In . SVG Version: 2.1.0 Build 141)  -->
  <defs
     id="defs1">
    <style
       id="style1">
      .st0 {
        fill: #e4c170;
      }
    </style>
  </defs>
  <path
     class="st0"
     d="M44.65,35.25h.91c.04.37.06.75.06,1.13,0,5.68-4.42,10.33-10,10.73v-.9c5.08-.39,9.1-4.65,9.1-9.83,0-.38-.03-.76-.07-1.13ZM49.56,36.35c0,7.89-6.18,14.34-13.95,14.82v.9c8.26-.48,14.85-7.34,14.85-15.72,0-.37-.03-.74-.06-1.1h-.9c.03.37.06.73.06,1.1ZM55.03,36.29c0,10.93-8.62,19.88-19.41,20.43v.9c11.29-.55,20.31-9.9,20.31-21.33,0-.35,0-.7-.03-1.04h-.9c.02.35.03.69.03,1.04ZM35.92,64.14l.15-.13v-28.31h22.72l4.66-4.66-.64-.64-4.4,4.4h-23.25v28.81c-1.79,1.64-4.65,4.33-4.85,4.93l.85.31c.2-.41,2.58-2.71,4.76-4.71ZM31.09,31.22h52.69v-.9H30.19v72.7h.9V31.22ZM30.54,109.68c-.55,0-1,.45-1,1s.45,1,1,1,1-.45,1-1-.45-1-1-1ZM30.54,115.46c-.55,0-1,.45-1,1s.45,1,1,1,1-.45,1-1-.45-1-1-1ZM30.54,121.23c-.55,0-1,.45-1,1s.45,1,1,1,1-.45,1-1-.45-1-1-1ZM30.54,127c-.55,0-1,.45-1,1s.45,1,1,1,1-.45,1-1-.45-1-1-1ZM30.54,132.77c-.55,0-1,.45-1,1s.45,1,1,1,1-.45,1-1-.45-1-1-1ZM30.54,138.54c-.55,0-1,.45-1,1s.45,1,1,1,1-.45,1-1-.45-1-1-1ZM30.54,144.32c-.55,0-1,.45-1,1s.45,1,1,1,1-.45,1-1-.45-1-1-1ZM30.54,150.09c-.55,0-1,.45-1,1s.45,1,1,1,1-.45,1-1-.45-1-1-1ZM30.54,155.86c-.55,0-1,.45-1,1s.45,1,1,1,1-.45,1-1-.45-1-1-1ZM30.54,161.63c-.55,0-1,.45-1,1s.45,1,1,1,1-.45,1-1-.45-1-1-1ZM30.54,167.4c-.55,0-1,.45-1,1s.45,1,1,1,1-.45,1-1-.45-1-1-1ZM30.54,173.17c-.55,0-1,.45-1,1s.45,1,1,1,1-.45,1-1-.45-1-1-1ZM30.54,178.95c-.55,0-1,.45-1,1s.45,1,1,1,1-.45,1-1-.45-1-1-1ZM30.54,184.72c-.55,0-1,.45-1,1s.45,1,1,1,1-.45,1-1-.45-1-1-1ZM30.54,190.49c-.55,0-1,.45-1,1s.45,1,1,1,1-.45,1-1-.45-1-1-1ZM30.54,196.26c-.55,0-1,.45-1,1s.45,1,1,1,1-.45,1-1-.45-1-1-1ZM30.54,202.03c-.55,0-1,.45-1,1s.45,1,1,1,1-.45,1-1-.45-1-1-1ZM30.54,207.8c-.55,0-1,.45-1,1s.45,1,1,1,1-.45,1-1-.45-1-1-1ZM30.54,213.58c-.55,0-1,.45-1,1s.45,1,1,1,1-.45,1-1-.45-1-1-1ZM30.54,219.35c-.55,0-1,.45-1,1s.45,1,1,1,1-.45,1-1-.45-1-1-1ZM30.54,225.12c-.55,0-1,.45-1,1s.45,1,1,1,1-.45,1-1-.45-1-1-1ZM30.54,230.89c-.55,0-1,.45-1,1s.45,1,1,1,1-.45,1-1-.45-1-1-1ZM30.54,236.66c-.55,0-1,.45-1,1s.45,1,1,1,1-.45,1-1-.45-1-1-1ZM30.54,242.43c-.55,0-1,.45-1,1s.45,1,1,1,1-.45,1-1-.45-1-1-1ZM30.54,248.21c-.55,0-1,.45-1,1s.45,1,1,1,1-.45,1-1-.45-1-1-1ZM30.54,253.98c-.55,0-1,.45-1,1s.45,1,1,1,1-.45,1-1-.45-1-1-1ZM30.54,259.75c-.55,0-1,.45-1,1s.45,1,1,1,1-.45,1-1-.45-1-1-1ZM30.54,265.52c-.55,0-1,.45-1,1s.45,1,1,1,1-.45,1-1-.45-1-1-1ZM30.54,271.29c-.55,0-1,.45-1,1s.45,1,1,1,1-.45,1-1-.45-1-1-1ZM30.54,277.07c-.55,0-1,.45-1,1s.45,1,1,1,1-.45,1-1-.45-1-1-1ZM30.54,282.84c-.55,0-1,.45-1,1s.45,1,1,1,1-.45,1-1-.45-1-1-1ZM30.54,288.61c-.55,0-1,.45-1,1s.45,1,1,1,1-.45,1-1-.45-1-1-1ZM30.54,294.38c-.55,0-1,.45-1,1s.45,1,1,1,1-.45,1-1-.45-1-1-1ZM30.54,300.15c-.55,0-1,.45-1,1s.45,1,1,1,1-.45,1-1-.45-1-1-1ZM30.54,305.92c-.55,0-1,.45-1,1s.45,1,1,1,1-.45,1-1-.45-1-1-1ZM30.54,311.7c-.55,0-1,.45-1,1s.45,1,1,1,1-.45,1-1-.45-1-1-1ZM30.54,317.47c-.55,0-1,.45-1,1s.45,1,1,1,1-.45,1-1-.45-1-1-1ZM235.45,29.63c-.55,0-1,.45-1,1,0,.55.45,1,1,1s1-.45,1-1c0-.55-.45-1-1-1ZM229.67,29.63c-.55,0-1,.45-1,1,0,.55.45,1,1,1s1-.45,1-1c0-.55-.45-1-1-1ZM223.9,29.63c-.55,0-1,.45-1,1s.45,1,1,1,1-.45,1-1c0-.55-.45-1-1-1ZM218.13,29.63c-.55,0-1,.45-1,1,0,.55.45,1,1,1s1-.45,1-1-.45-1-1-1ZM212.36,29.63c-.55,0-1,.45-1,1,0,.55.45,1,1,1s1-.45,1-1c0-.55-.45-1-1-1ZM206.59,29.63c-.55,0-1,.45-1,1,0,.55.45,1,1,1s1-.45,1-1c0-.55-.45-1-1-1ZM200.82,29.63c-.55,0-1,.45-1,1s.45,1,1,1,1-.45,1-1-.45-1-1-1ZM195.04,29.63c-.55,0-1,.45-1,1,0,.55.45,1,1,1s1-.45,1-1c0-.55-.45-1-1-1ZM189.27,29.63c-.55,0-1,.45-1,1s.45,1,1,1,1-.45,1-1c0-.55-.45-1-1-1ZM183.5,29.63c-.55,0-1,.45-1,1s.45,1,1,1,1-.45,1-1c0-.55-.45-1-1-1ZM177.73,29.63c-.55,0-1,.45-1,1,0,.55.45,1,1,1s1-.45,1-1c0-.55-.45-1-1-1ZM171.96,29.63c-.55,0-1,.45-1,1,0,.55.45,1,1,1s1-.45,1-1c0-.55-.45-1-1-1ZM166.18,29.63c-.55,0-1,.45-1,1,0,.55.45,1,1,1s1-.45,1-1c0-.55-.45-1-1-1ZM160.41,29.63c-.55,0-1,.45-1,1,0,.55.45,1,1,1s1-.45,1-1c0-.55-.45-1-1-1ZM154.64,29.63c-.55,0-1,.45-1,1s.45,1,1,1,1-.45,1-1c0-.55-.45-1-1-1ZM148.87,29.63c-.55,0-1,.45-1,1,0,.55.45,1,1,1s1-.45,1-1-.45-1-1-1ZM143.1,29.63c-.55,0-1,.45-1,1,0,.55.45,1,1,1s1-.45,1-1c0-.55-.45-1-1-1ZM137.33,29.63c-.55,0-1,.45-1,1s.45,1,1,1,1-.45,1-1c0-.55-.45-1-1-1ZM131.55,29.63c-.55,0-1,.45-1,1,0,.55.45,1,1,1s1-.45,1-1-.45-1-1-1ZM125.78,29.63c-.55,0-1,.45-1,1,0,.55.45,1,1,1s1-.45,1-1c0-.55-.45-1-1-1ZM120.01,29.63c-.55,0-1,.45-1,1s.45,1,1,1,1-.45,1-1c0-.55-.45-1-1-1ZM114.24,29.63c-.55,0-1,.45-1,1,0,.55.45,1,1,1s1-.45,1-1-.45-1-1-1ZM108.47,29.63c-.55,0-1,.45-1,1,0,.55.45,1,1,1s1-.45,1-1c0-.55-.45-1-1-1ZM102.7,29.63c-.55,0-1,.45-1,1s.45,1,1,1,1-.45,1-1c0-.55-.45-1-1-1ZM96.92,29.63c-.55,0-1,.45-1,1s.45,1,1,1,1-.45,1-1-.45-1-1-1ZM91.15,29.63c-.55,0-1,.45-1,1,0,.55.45,1,1,1s1-.45,1-1c0-.55-.45-1-1-1ZM44.65,797.47h.91c.04-.37.06-.75.06-1.13,0-5.68-4.42-10.33-10-10.73v.9c5.08.39,9.1,4.65,9.1,9.83,0,.38-.03.76-.07,1.13ZM49.5,797.47h.9c.03-.37.06-.73.06-1.1,0-8.38-6.58-15.24-14.85-15.72v.9c7.77.48,13.95,6.93,13.95,14.82,0,.37-.03.74-.06,1.1ZM55,797.47h.9c.02-.35.03-.69.03-1.04,0-11.43-9.02-20.78-20.31-21.33v.9c10.8.55,19.41,9.5,19.41,20.43,0,.35,0,.7-.03,1.04ZM63.45,801.68l-4.66-4.66h-22.72v-28.31l-.15-.13c-2.18-1.99-4.56-4.3-4.76-4.71l-.42.16.43-.14-.85.28c.2.6,3.06,3.29,4.85,4.93v28.81h23.25l4.4,4.4.64-.64ZM83.78,801.5H31.09v-71.79h-.9v72.7h53.59v-.9ZM31.53,722.04c0-.55-.45-1-1-1s-1,.45-1,1,.45,1,1,1,1-.45,1-1ZM31.53,716.27c0-.55-.45-1-1-1s-1,.45-1,1,.45,1,1,1,1-.45,1-1ZM31.53,710.49c0-.55-.45-1-1-1s-1,.45-1,1,.45,1,1,1,1-.45,1-1ZM31.53,704.72c0-.55-.45-1-1-1s-1,.45-1,1,.45,1,1,1,1-.45,1-1ZM31.53,698.95c0-.55-.45-1-1-1s-1,.45-1,1,.45,1,1,1,1-.45,1-1ZM31.53,693.18c0-.55-.45-1-1-1s-1,.45-1,1,.45,1,1,1,1-.45,1-1ZM31.53,687.41c0-.55-.45-1-1-1s-1,.45-1,1,.45,1,1,1,1-.45,1-1ZM31.53,681.64c0-.55-.45-1-1-1s-1,.45-1,1,.45,1,1,1,1-.45,1-1ZM31.53,675.86c0-.55-.45-1-1-1s-1,.45-1,1,.45,1,1,1,1-.45,1-1ZM31.53,670.09c0-.55-.45-1-1-1s-1,.45-1,1,.45,1,1,1,1-.45,1-1ZM31.53,664.32c0-.55-.45-1-1-1s-1,.45-1,1,.45,1,1,1,1-.45,1-1ZM31.53,658.55c0-.55-.45-1-1-1s-1,.45-1,1,.45,1,1,1,1-.45,1-1ZM31.53,652.78c0-.55-.45-1-1-1s-1,.45-1,1,.45,1,1,1,1-.45,1-1ZM31.53,647c0-.55-.45-1-1-1s-1,.45-1,1,.45,1,1,1,1-.45,1-1ZM31.53,641.23c0-.55-.45-1-1-1s-1,.45-1,1,.45,1,1,1,1-.45,1-1ZM31.53,635.46c0-.55-.45-1-1-1s-1,.45-1,1,.45,1,1,1,1-.45,1-1ZM31.53,629.69c0-.55-.45-1-1-1s-1,.45-1,1,.45,1,1,1,1-.45,1-1ZM31.53,623.92c0-.55-.45-1-1-1s-1,.45-1,1,.45,1,1,1,1-.45,1-1ZM31.53,618.15c0-.55-.45-1-1-1s-1,.45-1,1,.45,1,1,1,1-.45,1-1ZM31.53,612.37c0-.55-.45-1-1-1s-1,.45-1,1,.45,1,1,1,1-.45,1-1ZM31.53,606.6c0-.55-.45-1-1-1s-1,.45-1,1,.45,1,1,1,1-.45,1-1ZM31.53,600.83c0-.55-.45-1-1-1s-1,.45-1,1,.45,1,1,1,1-.45,1-1ZM31.53,595.06c0-.55-.45-1-1-1s-1,.45-1,1,.45,1,1,1,1-.45,1-1ZM31.53,589.29c0-.55-.45-1-1-1s-1,.45-1,1,.45,1,1,1,1-.45,1-1ZM31.53,583.52c0-.55-.45-1-1-1s-1,.45-1,1,.45,1,1,1,1-.45,1-1ZM31.53,577.74c0-.55-.45-1-1-1s-1,.45-1,1,.45,1,1,1,1-.45,1-1ZM31.53,571.97c0-.55-.45-1-1-1s-1,.45-1,1,.45,1,1,1,1-.45,1-1ZM31.53,566.2c0-.55-.45-1-1-1s-1,.45-1,1,.45,1,1,1,1-.45,1-1ZM31.53,560.43c0-.55-.45-1-1-1s-1,.45-1,1,.45,1,1,1,1-.45,1-1ZM31.53,554.66c0-.55-.45-1-1-1s-1,.45-1,1,.45,1,1,1,1-.45,1-1ZM31.53,548.88c0-.55-.45-1-1-1s-1,.45-1,1,.45,1,1,1,1-.45,1-1ZM31.53,543.11c0-.55-.45-1-1-1s-1,.45-1,1,.45,1,1,1,1-.45,1-1ZM31.53,537.34c0-.55-.45-1-1-1s-1,.45-1,1,.45,1,1,1,1-.45,1-1ZM31.53,531.57c0-.55-.45-1-1-1s-1,.45-1,1,.45,1,1,1,1-.45,1-1ZM31.53,525.8c0-.55-.45-1-1-1s-1,.45-1,1,.45,1,1,1,1-.45,1-1ZM31.53,520.03c0-.55-.45-1-1-1s-1,.45-1,1,.45,1,1,1,1-.45,1-1ZM31.53,514.25c0-.55-.45-1-1-1s-1,.45-1,1,.45,1,1,1,1-.45,1-1ZM172.95,802.1c0-.55-.45-1-1-1s-1,.45-1,1c0,.55.45,1,1,1s1-.45,1-1ZM167.18,802.1c0-.55-.45-1-1-1s-1,.45-1,1c0,.55.45,1,1,1s1-.45,1-1ZM161.41,802.1c0-.55-.45-1-1-1s-1,.45-1,1c0,.55.45,1,1,1s1-.45,1-1ZM155.64,802.1c0-.55-.45-1-1-1s-1,.45-1,1,.45,1,1,1,1-.45,1-1ZM149.86,802.1c0-.55-.45-1-1-1s-1,.45-1,1c0,.55.45,1,1,1s1-.45,1-1ZM144.09,802.1c0-.55-.45-1-1-1s-1,.45-1,1c0,.55.45,1,1,1s1-.45,1-1ZM138.32,802.1c0-.55-.45-1-1-1s-1,.45-1,1,.45,1,1,1,1-.45,1-1ZM132.55,802.1c0-.55-.45-1-1-1s-1,.45-1,1c0,.55.45,1,1,1,.55,0,1-.45,1-1ZM126.78,802.1c0-.55-.45-1-1-1s-1,.45-1,1c0,.55.45,1,1,1s1-.45,1-1ZM121.01,802.1c0-.55-.45-1-1-1-.55,0-1,.45-1,1s.45,1,1,1,1-.45,1-1ZM115.23,802.1c0-.55-.45-1-1-1s-1,.45-1,1c0,.55.45,1,1,1s1-.45,1-1ZM109.46,802.1c0-.55-.45-1-1-1s-1,.45-1,1c0,.55.45,1,1,1s1-.45,1-1ZM103.69,802.1c0-.55-.45-1-1-1s-1,.45-1,1,.45,1,1,1,1-.45,1-1ZM97.92,802.1c0-.55-.45-1-1-1s-1,.45-1,1,.45,1,1,1,1-.45,1-1ZM92.15,802.1c0-.55-.45-1-1-1s-1,.45-1,1c0,.55.45,1,1,1s1-.45,1-1ZM39.36,418.21l.06-.16-8.99-22.01-8.88,22.31,8.99,21.69,8.82-21.83ZM30.45,398.26l8.08,19.79-8,19.8-8.08-19.51,8-20.08ZM35.09,418.21l.02-.07-4.71-19.16-4.64,19.35-.02.07,4.71,18.88,4.64-19.08ZM30.4,401.34l4.14,16.81-4.09,16.83-4.13-16.57,4.09-17.07ZM30.93,335.5h-1.04v61.65h1.04v-61.65ZM36.46,330.13c0-3.17-2.58-5.74-5.74-5.74s-5.74,2.58-5.74,5.74,2.58,5.74,5.74,5.74,5.74-2.58,5.74-5.74ZM35.42,330.13c0,2.59-2.11,4.7-4.7,4.7s-4.7-2.11-4.7-4.7,2.11-4.7,4.7-4.7,4.7,2.11,4.7,4.7ZM30.64,326.92c-1.73,0-3.14,1.4-3.14,3.14s1.4,3.14,3.14,3.14,3.14-1.4,3.14-3.14-1.4-3.14-3.14-3.14ZM30.64,367.33c-2.09,0-3.78,1.69-3.78,3.78s1.69,3.78,3.78,3.78,3.78-1.69,3.78-3.78-1.69-3.78-3.78-3.78ZM34.64,359.74l-4.21-5.52-4.45,5.44.8.66,3.61-4.42,3.41,4.48.83-.63ZM34.64,350.94l-4.21-5.52-4.45,5.44.8.66,3.61-4.42,3.41,4.48.83-.63ZM31.08,438.55h-1.04v61.65h1.04v-61.65ZM36.61,505.57c0-3.17-2.58-5.75-5.74-5.75s-5.74,2.58-5.74,5.75,2.58,5.74,5.74,5.74,5.74-2.58,5.74-5.74ZM35.57,505.57c0,2.59-2.11,4.7-4.7,4.7s-4.7-2.11-4.7-4.7,2.11-4.71,4.7-4.71,4.7,2.11,4.7,4.71ZM33.92,505.65c0-1.73-1.4-3.14-3.14-3.14s-3.14,1.4-3.14,3.14,1.4,3.14,3.14,3.14,3.14-1.4,3.14-3.14ZM34.57,464.6c0-2.09-1.69-3.78-3.78-3.78s-3.78,1.69-3.78,3.78,1.69,3.78,3.78,3.78,3.78-1.69,3.78-3.78ZM34.78,475.96l-.83-.63-3.41,4.48-3.61-4.42-.8.66,4.45,5.44,4.21-5.52ZM34.78,484.77l-.83-.63-3.41,4.48-3.61-4.42-.8.66,4.45,5.44,4.21-5.52ZM194.25,794.48c.7-.25,1.45-.39,2.23-.39,4,0,7.25,3.58,7.25,8s-3.25,8-7.25,8c-.78,0-1.53-.14-2.23-.39,1.57,1.47,3.61,2.35,5.83,2.35,4.99,0,9.03-4.46,9.03-9.97s-4.04-9.97-9.03-9.97c-2.22,0-4.26.88-5.83,2.35ZM182.11,802.1c0-1.16-.94-2.1-2.1-2.1-1.16,0-2.1.94-2.1,2.1,0,1.16.94,2.1,2.1,2.1s2.1-.94,2.1-2.1ZM193.51,802.1c0-2.36-1.92-4.28-4.28-4.28-2.36,0-4.28,1.92-4.28,4.28,0,2.36,1.92,4.28,4.28,4.28,2.36,0,4.28-1.92,4.28-4.28Z"
     id="path1" />
</svg>
