<svg xmlns="http://www.w3.org/2000/svg" xmlns:xlink="http://www.w3.org/1999/xlink" width="800" zoomAndPan="magnify" viewBox="0 0 600 599.999999" height="800" preserveAspectRatio="xMidYMid meet" version="1.2"><defs><clipPath id="22dc561ae1"><path d="M 569 56 L 575.5 56 L 575.5 63 L 569 63 Z M 569 56 "/></clipPath><clipPath id="b0cf445732"><path d="M 55 568 L 63 568 L 63 574.933594 L 55 574.933594 Z M 55 568 "/></clipPath><clipPath id="f4e87f0df4"><path d="M 24.496094 25.183594 L 94 25.183594 L 94 94 L 24.496094 94 Z M 24.496094 25.183594 "/></clipPath></defs><g id="7a1456c5da"><path style=" stroke:none;fill-rule:nonzero;fill:#fff685;fill-opacity:1;" d="M 251.320312 62.429688 L 564.507812 59.363281 L 251.320312 56.296875 C 247.269531 56.371094 247.191406 62.328125 251.320312 62.429688 Z M 251.320312 62.429688 "/><path style=" stroke:none;fill-rule:nonzero;fill:#fff685;fill-opacity:1;" d="M 98.339844 62.429688 L 224.460938 59.363281 L 98.339844 56.296875 C 94.203125 56.328125 94.175781 62.382812 98.339844 62.429688 Z M 98.339844 62.429688 "/><path style=" stroke:none;fill-rule:nonzero;fill:#fff685;fill-opacity:1;" d="M 234.09375 59.402344 C 234.09375 59.808594 234.167969 60.195312 234.324219 60.570312 C 234.480469 60.945312 234.699219 61.273438 234.984375 61.558594 C 235.273438 61.84375 235.601562 62.066406 235.976562 62.21875 C 236.347656 62.375 236.738281 62.453125 237.140625 62.453125 C 237.546875 62.453125 237.933594 62.375 238.308594 62.21875 C 238.683594 62.066406 239.011719 61.84375 239.296875 61.558594 C 239.582031 61.273438 239.804688 60.945312 239.957031 60.570312 C 240.113281 60.195312 240.191406 59.808594 240.191406 59.402344 C 240.191406 59 240.113281 58.609375 239.957031 58.238281 C 239.804688 57.863281 239.582031 57.53125 239.296875 57.246094 C 239.011719 56.960938 238.683594 56.742188 238.308594 56.585938 C 237.933594 56.429688 237.546875 56.355469 237.140625 56.355469 C 236.738281 56.355469 236.347656 56.429688 235.976562 56.585938 C 235.601562 56.742188 235.273438 56.960938 234.984375 57.246094 C 234.699219 57.53125 234.480469 57.863281 234.324219 58.238281 C 234.167969 58.609375 234.09375 59 234.09375 59.402344 Z M 234.09375 59.402344 "/><g clip-rule="nonzero" clip-path="url(#22dc561ae1)"><path style=" stroke:none;fill-rule:nonzero;fill:#fff685;fill-opacity:1;" d="M 569.382812 59.402344 C 569.382812 59.808594 569.460938 60.195312 569.617188 60.570312 C 569.769531 60.945312 569.992188 61.273438 570.277344 61.558594 C 570.5625 61.84375 570.890625 62.066406 571.265625 62.21875 C 571.640625 62.375 572.027344 62.453125 572.433594 62.453125 C 572.835938 62.453125 573.226562 62.375 573.601562 62.21875 C 573.972656 62.066406 574.304688 61.84375 574.589844 61.558594 C 574.875 61.273438 575.09375 60.945312 575.25 60.570312 C 575.40625 60.195312 575.480469 59.808594 575.480469 59.402344 C 575.480469 59 575.40625 58.609375 575.25 58.238281 C 575.09375 57.863281 574.875 57.53125 574.589844 57.246094 C 574.304688 56.960938 573.972656 56.742188 573.601562 56.585938 C 573.226562 56.429688 572.835938 56.355469 572.433594 56.355469 C 572.027344 56.355469 571.640625 56.429688 571.265625 56.585938 C 570.890625 56.742188 570.5625 56.960938 570.277344 57.246094 C 569.992188 57.53125 569.769531 57.863281 569.617188 58.238281 C 569.460938 58.609375 569.382812 59 569.382812 59.402344 Z M 569.382812 59.402344 "/></g><path style=" stroke:none;fill-rule:nonzero;fill:#fff685;fill-opacity:1;" d="M 242.660156 59.402344 C 242.660156 59.59375 242.695312 59.773438 242.769531 59.949219 C 242.839844 60.121094 242.945312 60.273438 243.078125 60.410156 C 243.210938 60.542969 243.363281 60.644531 243.539062 60.71875 C 243.710938 60.789062 243.894531 60.824219 244.082031 60.824219 C 244.269531 60.824219 244.453125 60.789062 244.625 60.71875 C 244.800781 60.644531 244.953125 60.542969 245.085938 60.410156 C 245.222656 60.273438 245.324219 60.121094 245.394531 59.949219 C 245.46875 59.773438 245.503906 59.59375 245.503906 59.402344 C 245.503906 59.214844 245.46875 59.035156 245.394531 58.859375 C 245.324219 58.683594 245.222656 58.53125 245.085938 58.398438 C 244.953125 58.265625 244.800781 58.160156 244.625 58.089844 C 244.453125 58.019531 244.269531 57.980469 244.082031 57.980469 C 243.894531 57.980469 243.710938 58.019531 243.539062 58.089844 C 243.363281 58.160156 243.210938 58.265625 243.078125 58.398438 C 242.945312 58.53125 242.839844 58.683594 242.769531 58.859375 C 242.695312 59.035156 242.660156 59.214844 242.660156 59.402344 Z M 242.660156 59.402344 "/><path style=" stroke:none;fill-rule:nonzero;fill:#fff685;fill-opacity:1;" d="M 229.230469 59.402344 C 229.230469 59.59375 229.265625 59.773438 229.339844 59.949219 C 229.410156 60.121094 229.515625 60.273438 229.648438 60.410156 C 229.78125 60.542969 229.933594 60.644531 230.109375 60.71875 C 230.28125 60.789062 230.464844 60.824219 230.652344 60.824219 C 230.839844 60.824219 231.023438 60.789062 231.195312 60.71875 C 231.371094 60.644531 231.523438 60.542969 231.65625 60.410156 C 231.792969 60.273438 231.894531 60.121094 231.964844 59.949219 C 232.039062 59.773438 232.074219 59.59375 232.074219 59.402344 C 232.074219 59.214844 232.039062 59.035156 231.964844 58.859375 C 231.894531 58.683594 231.792969 58.53125 231.65625 58.398438 C 231.523438 58.265625 231.371094 58.160156 231.195312 58.089844 C 231.023438 58.019531 230.839844 57.980469 230.652344 57.980469 C 230.464844 57.980469 230.28125 58.019531 230.109375 58.089844 C 229.933594 58.160156 229.78125 58.265625 229.648438 58.398438 C 229.515625 58.53125 229.410156 58.683594 229.339844 58.859375 C 229.265625 59.035156 229.230469 59.214844 229.230469 59.402344 Z M 229.230469 59.402344 "/><path style=" stroke:none;fill-rule:nonzero;fill:#fff685;fill-opacity:1;" d="M 55.910156 250.640625 L 58.976562 563.828125 L 62.042969 250.640625 C 61.972656 246.589844 56.011719 246.511719 55.910156 250.640625 Z M 55.910156 250.640625 "/><path style=" stroke:none;fill-rule:nonzero;fill:#fff685;fill-opacity:1;" d="M 55.914062 97.664062 L 58.980469 223.785156 L 62.046875 97.664062 C 62.011719 93.527344 55.957031 93.5 55.914062 97.664062 Z M 55.914062 97.664062 "/><path style=" stroke:none;fill-rule:nonzero;fill:#fff685;fill-opacity:1;" d="M 55.96875 236.460938 C 55.96875 236.867188 56.046875 237.257812 56.203125 237.628906 C 56.355469 238.003906 56.578125 238.332031 56.863281 238.617188 C 57.148438 238.90625 57.480469 239.125 57.851562 239.28125 C 58.226562 239.433594 58.617188 239.511719 59.019531 239.511719 C 59.425781 239.511719 59.8125 239.433594 60.1875 239.28125 C 60.558594 239.125 60.890625 238.90625 61.175781 238.617188 C 61.460938 238.332031 61.683594 238.003906 61.835938 237.628906 C 61.992188 237.257812 62.070312 236.867188 62.070312 236.460938 C 62.070312 236.058594 61.992188 235.667969 61.835938 235.296875 C 61.683594 234.921875 61.460938 234.59375 61.175781 234.304688 C 60.890625 234.019531 60.558594 233.800781 60.1875 233.644531 C 59.8125 233.492188 59.425781 233.414062 59.019531 233.414062 C 58.617188 233.414062 58.226562 233.492188 57.851562 233.644531 C 57.480469 233.800781 57.148438 234.019531 56.863281 234.304688 C 56.578125 234.59375 56.355469 234.921875 56.203125 235.296875 C 56.046875 235.667969 55.96875 236.058594 55.96875 236.460938 Z M 55.96875 236.460938 "/><g clip-rule="nonzero" clip-path="url(#b0cf445732)"><path style=" stroke:none;fill-rule:nonzero;fill:#fff685;fill-opacity:1;" d="M 55.96875 571.753906 C 55.96875 572.160156 56.046875 572.546875 56.203125 572.921875 C 56.355469 573.292969 56.578125 573.625 56.863281 573.910156 C 57.148438 574.195312 57.480469 574.417969 57.851562 574.570312 C 58.226562 574.726562 58.617188 574.804688 59.019531 574.804688 C 59.425781 574.804688 59.8125 574.726562 60.1875 574.570312 C 60.558594 574.417969 60.890625 574.195312 61.175781 573.910156 C 61.460938 573.625 61.683594 573.292969 61.835938 572.921875 C 61.992188 572.546875 62.070312 572.160156 62.070312 571.753906 C 62.070312 571.347656 61.992188 570.960938 61.835938 570.585938 C 61.683594 570.214844 61.460938 569.882812 61.175781 569.597656 C 60.890625 569.3125 60.558594 569.089844 60.1875 568.9375 C 59.8125 568.78125 59.425781 568.703125 59.019531 568.703125 C 58.617188 568.703125 58.226562 568.78125 57.851562 568.9375 C 57.480469 569.089844 57.148438 569.3125 56.863281 569.597656 C 56.578125 569.882812 56.355469 570.214844 56.203125 570.585938 C 56.046875 570.960938 55.96875 571.347656 55.96875 571.753906 Z M 55.96875 571.753906 "/></g><path style=" stroke:none;fill-rule:nonzero;fill:#fff685;fill-opacity:1;" d="M 57.597656 243.402344 C 57.597656 243.589844 57.632812 243.773438 57.707031 243.949219 C 57.777344 244.121094 57.882812 244.273438 58.015625 244.410156 C 58.148438 244.542969 58.300781 244.644531 58.476562 244.714844 C 58.648438 244.789062 58.832031 244.824219 59.019531 244.824219 C 59.207031 244.824219 59.390625 244.789062 59.5625 244.714844 C 59.738281 244.644531 59.890625 244.542969 60.023438 244.410156 C 60.160156 244.273438 60.261719 244.121094 60.332031 243.949219 C 60.40625 243.773438 60.441406 243.589844 60.441406 243.402344 C 60.441406 243.214844 60.40625 243.035156 60.332031 242.859375 C 60.261719 242.683594 60.160156 242.53125 60.023438 242.398438 C 59.890625 242.265625 59.738281 242.160156 59.5625 242.089844 C 59.390625 242.015625 59.207031 241.980469 59.019531 241.980469 C 58.832031 241.980469 58.648438 242.015625 58.476562 242.089844 C 58.300781 242.160156 58.148438 242.265625 58.015625 242.398438 C 57.882812 242.53125 57.777344 242.683594 57.707031 242.859375 C 57.632812 243.035156 57.597656 243.214844 57.597656 243.402344 Z M 57.597656 243.402344 "/><path style=" stroke:none;fill-rule:nonzero;fill:#fff685;fill-opacity:1;" d="M 57.597656 229.972656 C 57.597656 230.164062 57.632812 230.34375 57.707031 230.519531 C 57.777344 230.691406 57.882812 230.847656 58.015625 230.980469 C 58.148438 231.113281 58.300781 231.214844 58.476562 231.289062 C 58.648438 231.359375 58.832031 231.394531 59.019531 231.394531 C 59.207031 231.394531 59.390625 231.359375 59.5625 231.289062 C 59.738281 231.214844 59.890625 231.113281 60.023438 230.980469 C 60.160156 230.847656 60.261719 230.691406 60.332031 230.519531 C 60.40625 230.34375 60.441406 230.164062 60.441406 229.972656 C 60.441406 229.785156 60.40625 229.605469 60.332031 229.429688 C 60.261719 229.253906 60.160156 229.101562 60.023438 228.96875 C 59.890625 228.835938 59.738281 228.730469 59.5625 228.660156 C 59.390625 228.589844 59.207031 228.550781 59.019531 228.550781 C 58.832031 228.550781 58.648438 228.589844 58.476562 228.660156 C 58.300781 228.730469 58.148438 228.835938 58.015625 228.96875 C 57.882812 229.101562 57.777344 229.253906 57.707031 229.429688 C 57.632812 229.605469 57.597656 229.785156 57.597656 229.972656 Z M 57.597656 229.972656 "/><path style=" stroke:none;fill-rule:nonzero;fill:#fff685;fill-opacity:1;" d="M 36.5 59.511719 C 51.3125 60.460938 54.761719 61.226562 59.019531 64.527344 C 63.277344 61.226562 66.726562 60.460938 81.539062 59.511719 C 66.726562 58.5625 63.277344 57.792969 59.019531 54.492188 C 54.761719 57.792969 51.3125 58.5625 36.5 59.511719 Z M 36.5 59.511719 "/><path style=" stroke:none;fill-rule:nonzero;fill:#fff685;fill-opacity:1;" d="M 59.019531 82.03125 C 59.96875 67.21875 60.738281 63.769531 64.039062 59.511719 C 60.738281 55.253906 59.96875 51.804688 59.019531 36.992188 C 58.070312 51.804688 57.300781 55.253906 54 59.511719 C 57.300781 63.769531 58.070312 67.21875 59.019531 82.03125 Z M 59.019531 82.03125 "/><g clip-rule="nonzero" clip-path="url(#f4e87f0df4)"><path style=" stroke:none;fill-rule:nonzero;fill:#fff685;fill-opacity:1;" d="M 65.058594 93.578125 C 66.496094 93.324219 67.453125 91.964844 67.199219 90.539062 C 66.953125 89.101562 65.59375 88.148438 64.167969 88.402344 C 62.730469 88.644531 61.773438 90.003906 62.019531 91.433594 C 62.246094 92.71875 63.359375 93.613281 64.613281 93.613281 C 64.761719 93.613281 64.910156 93.605469 65.058594 93.578125 Z M 56.113281 91.433594 C 56.359375 90.003906 55.40625 88.636719 53.976562 88.390625 C 52.550781 88.136719 51.183594 89.09375 50.929688 90.519531 C 50.683594 91.949219 51.640625 93.316406 53.066406 93.5625 L 53.066406 93.570312 C 53.222656 93.597656 53.371094 93.605469 53.523438 93.605469 C 54.773438 93.605469 55.886719 92.710938 56.113281 91.433594 Z M 76.355469 89.488281 C 77.605469 88.757812 78.042969 87.148438 77.316406 85.894531 C 76.589844 84.632812 74.988281 84.203125 73.726562 84.929688 C 72.472656 85.65625 72.035156 87.261719 72.761719 88.523438 C 73.253906 89.363281 74.136719 89.835938 75.046875 89.835938 C 75.488281 89.835938 75.941406 89.722656 76.355469 89.488281 Z M 45.375 88.496094 C 46.101562 87.234375 45.679688 85.632812 44.417969 84.90625 C 43.167969 84.175781 41.554688 84.605469 40.828125 85.859375 C 40.101562 87.113281 40.527344 88.722656 41.789062 89.453125 C 42.203125 89.6875 42.660156 89.800781 43.105469 89.800781 C 44.007812 89.800781 44.890625 89.335938 45.375 88.496094 Z M 85.554688 81.777344 C 86.488281 80.671875 86.351562 79.007812 85.238281 78.070312 C 84.125 77.132812 82.46875 77.28125 81.53125 78.386719 C 80.601562 79.5 80.742188 81.164062 81.847656 82.09375 C 82.339844 82.511719 82.941406 82.714844 83.539062 82.714844 C 84.292969 82.714844 85.035156 82.390625 85.554688 81.777344 Z M 36.304688 82.058594 C 37.417969 81.121094 37.558594 79.464844 36.628906 78.351562 C 35.691406 77.238281 34.039062 77.097656 32.925781 78.027344 C 31.8125 78.957031 31.671875 80.621094 32.601562 81.726562 C 33.117188 82.347656 33.863281 82.671875 34.613281 82.671875 C 35.210938 82.671875 35.816406 82.46875 36.304688 82.058594 Z M 91.582031 71.394531 C 92.082031 70.039062 91.378906 68.519531 90.011719 68.03125 C 88.644531 67.53125 87.140625 68.230469 86.640625 69.589844 C 86.140625 70.957031 86.839844 72.464844 88.207031 72.964844 C 88.507812 73.078125 88.8125 73.121094 89.109375 73.121094 C 90.179688 73.121094 91.1875 72.464844 91.582031 71.394531 Z M 29.964844 72.910156 C 31.328125 72.410156 32.03125 70.902344 31.53125 69.539062 C 31.039062 68.171875 29.535156 67.46875 28.167969 67.96875 C 26.800781 68.460938 26.097656 69.96875 26.589844 71.332031 C 26.984375 72.402344 27.992188 73.070312 29.070312 73.070312 C 29.367188 73.070312 29.664062 73.015625 29.964844 72.910156 Z M 93.675781 59.574219 C 93.675781 58.128906 92.5 56.949219 91.054688 56.949219 C 89.601562 56.949219 88.425781 58.121094 88.417969 59.566406 C 88.417969 61.023438 89.589844 62.203125 91.039062 62.203125 C 92.492188 62.203125 93.675781 61.03125 93.675781 59.574219 Z M 29.769531 59.507812 L 29.769531 59.390625 C 29.777344 57.9375 28.605469 56.753906 27.160156 56.753906 C 25.703125 56.746094 24.523438 57.921875 24.515625 59.375 C 24.515625 59.402344 24.523438 59.417969 24.523438 59.445312 C 24.523438 59.472656 24.515625 59.488281 24.515625 59.507812 C 24.515625 60.960938 25.695312 62.144531 27.140625 62.144531 C 28.597656 62.144531 29.769531 60.960938 29.769531 59.507812 Z M 90.046875 51.121094 C 91.414062 50.621094 92.113281 49.113281 91.625 47.75 C 91.132812 46.382812 89.625 45.679688 88.261719 46.171875 C 86.894531 46.671875 86.183594 48.179688 86.683594 49.535156 C 87.070312 50.613281 88.078125 51.28125 89.152344 51.28125 C 89.453125 51.28125 89.75 51.226562 90.046875 51.121094 Z M 31.574219 49.378906 C 32.074219 48.011719 31.375 46.496094 30.015625 45.996094 C 28.648438 45.496094 27.140625 46.199219 26.644531 47.554688 C 26.144531 48.914062 26.835938 50.429688 28.191406 50.9375 C 28.5 51.042969 28.804688 51.09375 29.105469 51.09375 C 30.171875 51.09375 31.179688 50.4375 31.574219 49.378906 Z M 85.308594 41.046875 C 86.421875 40.117188 86.570312 38.453125 85.640625 37.339844 C 84.703125 36.238281 83.046875 36.078125 81.933594 37.015625 C 80.820312 37.945312 80.671875 39.601562 81.601562 40.714844 L 81.601562 40.722656 C 82.128906 41.335938 82.871094 41.660156 83.625 41.660156 C 84.222656 41.660156 84.816406 41.457031 85.308594 41.046875 Z M 36.699219 40.582031 C 37.636719 39.476562 37.496094 37.820312 36.394531 36.882812 C 35.28125 35.949219 33.625 36.078125 32.6875 37.191406 L 32.679688 37.191406 C 31.75 38.296875 31.890625 39.960938 32.996094 40.898438 C 33.484375 41.308594 34.089844 41.511719 34.695312 41.511719 C 35.4375 41.511719 36.183594 41.195312 36.699219 40.582031 Z M 77.421875 33.207031 C 78.148438 31.941406 77.730469 30.339844 76.46875 29.605469 C 75.214844 28.875 73.601562 29.296875 72.875 30.558594 C 72.140625 31.8125 72.570312 33.414062 73.820312 34.152344 C 74.242188 34.386719 74.699219 34.5 75.144531 34.5 C 76.046875 34.5 76.933594 34.035156 77.421875 33.207031 Z M 44.515625 34.0625 C 45.777344 33.335938 46.214844 31.734375 45.488281 30.472656 C 44.769531 29.21875 43.15625 28.78125 41.90625 29.507812 L 41.90625 29.5 C 40.644531 30.226562 40.203125 31.828125 40.933594 33.089844 C 41.414062 33.941406 42.300781 34.414062 43.210938 34.414062 C 43.65625 34.414062 44.105469 34.300781 44.515625 34.0625 Z M 67.320312 28.515625 C 67.582031 27.089844 66.628906 25.722656 65.191406 25.46875 C 63.765625 25.214844 62.40625 26.167969 62.144531 27.597656 C 61.886719 29.027344 62.84375 30.394531 64.273438 30.648438 C 64.429688 30.671875 64.585938 30.679688 64.734375 30.679688 C 65.988281 30.679688 67.101562 29.789062 67.320312 28.515625 Z M 54.089844 30.613281 C 55.519531 30.367188 56.484375 29.007812 56.238281 27.582031 C 55.992188 26.144531 54.636719 25.1875 53.199219 25.433594 C 51.769531 25.679688 50.816406 27.039062 51.058594 28.464844 C 51.28125 29.746094 52.382812 30.65625 53.644531 30.65625 C 53.785156 30.65625 53.941406 30.636719 54.089844 30.613281 Z M 54.089844 30.613281 "/></g><path style=" stroke:none;fill-rule:nonzero;fill:#fff685;fill-opacity:1;" d="M 61.222656 85.492188 C 62.1875 85.414062 62.90625 84.5625 62.828125 83.597656 C 62.746094 82.636719 61.90625 81.917969 60.941406 81.996094 C 59.980469 82.074219 59.261719 82.914062 59.332031 83.886719 C 59.410156 84.800781 60.171875 85.492188 61.074219 85.492188 Z M 54.808594 83.511719 C 55.046875 82.574219 54.476562 81.621094 53.539062 81.382812 C 52.601562 81.144531 51.648438 81.707031 51.410156 82.652344 C 51.175781 83.589844 51.742188 84.535156 52.679688 84.78125 C 52.820312 84.816406 52.96875 84.835938 53.109375 84.835938 C 53.890625 84.835938 54.609375 84.300781 54.808594 83.511719 Z M 69.546875 83.398438 L 69.539062 83.398438 C 70.429688 83.011719 70.835938 81.980469 70.449219 81.085938 C 70.054688 80.199219 69.019531 79.796875 68.136719 80.191406 C 67.25 80.578125 66.847656 81.609375 67.234375 82.496094 C 67.523438 83.152344 68.160156 83.546875 68.835938 83.546875 C 69.074219 83.546875 69.320312 83.492188 69.546875 83.398438 Z M 47.25 80.820312 C 47.785156 80.007812 47.554688 78.921875 46.75 78.394531 C 45.933594 77.859375 44.847656 78.089844 44.324219 78.902344 C 43.789062 79.710938 44.015625 80.796875 44.820312 81.320312 C 45.121094 81.523438 45.460938 81.609375 45.785156 81.609375 C 46.355469 81.609375 46.914062 81.332031 47.25 80.820312 Z M 76.722656 78.710938 C 77.441406 78.054688 77.484375 76.949219 76.828125 76.230469 C 76.179688 75.523438 75.066406 75.46875 74.355469 76.125 C 73.636719 76.78125 73.59375 77.886719 74.25 78.605469 C 74.59375 78.984375 75.066406 79.175781 75.539062 79.175781 C 75.960938 79.175781 76.390625 79.019531 76.722656 78.710938 Z M 40.984375 75.820312 C 41.746094 75.222656 41.878906 74.128906 41.28125 73.367188 L 41.28125 73.359375 C 40.695312 72.59375 39.59375 72.464844 38.828125 73.058594 C 38.066406 73.65625 37.925781 74.75 38.523438 75.511719 C 38.863281 75.960938 39.382812 76.1875 39.90625 76.1875 C 40.285156 76.1875 40.660156 76.074219 40.984375 75.820312 Z M 82.003906 71.957031 C 82.46875 71.105469 82.152344 70.039062 81.304688 69.582031 C 80.453125 69.117188 79.386719 69.433594 78.929688 70.28125 C 78.464844 71.132812 78.78125 72.191406 79.628906 72.65625 C 79.894531 72.804688 80.183594 72.867188 80.460938 72.867188 C 81.085938 72.867188 81.691406 72.542969 82.003906 71.957031 Z M 36.664062 69.066406 C 37.578125 68.75 38.066406 67.75 37.75 66.839844 C 37.4375 65.917969 36.4375 65.429688 35.527344 65.742188 C 34.613281 66.058594 34.125 67.058594 34.441406 67.96875 C 34.683594 68.707031 35.367188 69.160156 36.097656 69.160156 C 36.28125 69.160156 36.472656 69.125 36.664062 69.066406 Z M 84.800781 63.851562 C 84.964844 62.886719 84.316406 61.984375 83.363281 61.828125 C 82.410156 61.667969 81.503906 62.308594 81.347656 63.265625 L 81.347656 63.273438 C 81.191406 64.21875 81.828125 65.121094 82.785156 65.289062 C 82.882812 65.296875 82.984375 65.304688 83.082031 65.304688 C 83.914062 65.304688 84.660156 64.699219 84.800781 63.851562 Z M 36.535156 59.507812 L 36.535156 59.417969 C 36.542969 58.453125 35.761719 57.667969 34.789062 57.65625 C 33.828125 57.65625 33.039062 58.4375 33.039062 59.402344 L 33.039062 59.507812 L 33.03125 59.507812 C 33.03125 60.480469 33.820312 61.265625 34.78125 61.265625 C 35.753906 61.265625 36.535156 60.480469 36.535156 59.507812 Z M 83.371094 57.289062 C 84.328125 57.132812 84.976562 56.230469 84.816406 55.273438 C 84.660156 54.320312 83.765625 53.671875 82.800781 53.828125 C 81.855469 53.988281 81.207031 54.890625 81.363281 55.84375 L 81.363281 55.835938 C 81.503906 56.703125 82.25 57.308594 83.089844 57.308594 C 83.1875 57.308594 83.273438 57.308594 83.371094 57.289062 Z M 37.777344 52.101562 C 38.101562 51.191406 37.609375 50.191406 36.699219 49.878906 C 35.789062 49.554688 34.789062 50.035156 34.464844 50.957031 C 34.152344 51.867188 34.640625 52.863281 35.554688 53.179688 C 35.746094 53.25 35.9375 53.277344 36.121094 53.277344 C 36.851562 53.277344 37.53125 52.828125 37.777344 52.101562 Z M 81.339844 49.527344 C 82.199219 49.070312 82.511719 48.003906 82.050781 47.152344 C 81.59375 46.300781 80.53125 45.980469 79.675781 46.441406 C 78.824219 46.898438 78.507812 47.96875 78.964844 48.816406 C 79.28125 49.402344 79.882812 49.738281 80.515625 49.738281 C 80.796875 49.738281 81.074219 49.667969 81.339844 49.527344 Z M 41.34375 45.59375 L 41.335938 45.59375 C 41.941406 44.832031 41.808594 43.726562 41.046875 43.132812 C 40.285156 42.535156 39.179688 42.667969 38.585938 43.429688 C 37.988281 44.191406 38.121094 45.285156 38.882812 45.890625 C 39.207031 46.136719 39.582031 46.257812 39.960938 46.257812 C 40.484375 46.257812 40.992188 46.03125 41.34375 45.59375 Z M 76.886719 42.851562 C 77.554688 42.140625 77.511719 41.039062 76.800781 40.378906 C 76.089844 39.714844 74.976562 39.757812 74.320312 40.476562 C 73.664062 41.1875 73.707031 42.289062 74.417969 42.945312 C 74.757812 43.261719 75.179688 43.410156 75.609375 43.410156 C 76.082031 43.410156 76.546875 43.226562 76.886719 42.851562 Z M 46.820312 40.582031 C 47.632812 40.046875 47.863281 38.96875 47.335938 38.15625 C 46.8125 37.339844 45.726562 37.113281 44.910156 37.636719 C 44.105469 38.164062 43.867188 39.25 44.394531 40.066406 C 44.734375 40.582031 45.296875 40.863281 45.863281 40.863281 C 46.199219 40.863281 46.53125 40.765625 46.820312 40.582031 Z M 70.527344 37.980469 C 70.921875 37.085938 70.519531 36.050781 69.632812 35.667969 C 68.75 35.273438 67.714844 35.675781 67.320312 36.5625 C 66.925781 37.445312 67.332031 38.480469 68.214844 38.875 C 68.441406 38.96875 68.6875 39.023438 68.925781 39.023438 C 69.597656 39.023438 70.238281 38.628906 70.527344 37.980469 Z M 53.628906 37.621094 C 54.566406 37.382812 55.132812 36.429688 54.90625 35.492188 C 54.671875 34.554688 53.722656 33.984375 52.777344 34.210938 C 51.839844 34.449219 51.269531 35.402344 51.5 36.339844 C 51.699219 37.136719 52.417969 37.671875 53.207031 37.671875 C 53.347656 37.671875 53.488281 37.65625 53.628906 37.621094 Z M 62.921875 35.429688 C 63 34.464844 62.292969 33.625 61.328125 33.539062 C 60.363281 33.460938 59.515625 34.175781 59.4375 35.140625 C 59.347656 36.105469 60.066406 36.953125 61.03125 37.03125 C 61.074219 37.03125 61.128906 37.042969 61.171875 37.042969 C 62.082031 37.042969 62.84375 36.351562 62.921875 35.429688 Z M 62.921875 35.429688 "/><path style=" stroke:none;fill-rule:nonzero;fill:#fff685;fill-opacity:1;" d="M 61.398438 76.539062 C 61.878906 76.476562 62.210938 76.03125 62.152344 75.558594 C 62.089844 75.074219 61.644531 74.734375 61.164062 74.804688 L 61.171875 74.804688 C 60.6875 74.863281 60.347656 75.300781 60.410156 75.785156 C 60.46875 76.222656 60.847656 76.546875 61.285156 76.546875 C 61.320312 76.546875 61.363281 76.546875 61.398438 76.539062 Z M 57.710938 75.785156 C 57.78125 75.300781 57.445312 74.855469 56.964844 74.792969 C 56.484375 74.722656 56.046875 75.066406 55.976562 75.539062 C 55.914062 76.019531 56.246094 76.457031 56.730469 76.527344 C 56.761719 76.527344 56.808594 76.539062 56.84375 76.539062 C 57.28125 76.539062 57.648438 76.222656 57.710938 75.785156 Z M 65.910156 75.285156 C 66.347656 75.09375 66.558594 74.582031 66.367188 74.136719 C 66.171875 73.691406 65.65625 73.488281 65.210938 73.679688 C 64.769531 73.875 64.5625 74.382812 64.753906 74.828125 C 64.902344 75.164062 65.21875 75.363281 65.558594 75.363281 C 65.671875 75.363281 65.796875 75.335938 65.910156 75.285156 Z M 53.371094 74.8125 C 53.566406 74.363281 53.363281 73.847656 52.925781 73.65625 C 52.480469 73.460938 51.964844 73.664062 51.769531 74.101562 C 51.578125 74.550781 51.777344 75.066406 52.226562 75.257812 C 52.339844 75.3125 52.453125 75.328125 52.574219 75.328125 C 52.910156 75.328125 53.234375 75.136719 53.371094 74.8125 Z M 69.90625 72.867188 C 70.28125 72.558594 70.34375 72.007812 70.039062 71.632812 C 69.730469 71.253906 69.179688 71.191406 68.800781 71.5 C 68.425781 71.808594 68.371094 72.359375 68.679688 72.734375 C 68.84375 72.945312 69.097656 73.058594 69.355469 73.058594 C 69.546875 73.058594 69.75 73 69.90625 72.867188 Z M 49.464844 72.699219 C 49.773438 72.324219 49.71875 71.773438 49.34375 71.464844 C 48.964844 71.15625 48.414062 71.210938 48.109375 71.585938 C 47.800781 71.964844 47.863281 72.515625 48.230469 72.816406 L 48.230469 72.824219 C 48.398438 72.953125 48.589844 73.015625 48.78125 73.015625 C 49.046875 73.015625 49.289062 72.910156 49.464844 72.699219 Z M 73.105469 69.460938 C 73.394531 69.066406 73.296875 68.511719 72.902344 68.230469 C 72.507812 67.953125 71.964844 68.046875 71.675781 68.441406 L 71.683594 68.441406 C 71.394531 68.835938 71.492188 69.378906 71.886719 69.660156 C 72.042969 69.773438 72.21875 69.828125 72.394531 69.828125 C 72.664062 69.828125 72.9375 69.695312 73.105469 69.457031 Z M 46.269531 69.609375 C 46.660156 69.328125 46.757812 68.785156 46.476562 68.390625 C 46.199219 67.996094 45.65625 67.898438 45.261719 68.179688 C 44.855469 68.460938 44.769531 69.003906 45.042969 69.398438 C 45.214844 69.644531 45.488281 69.773438 45.761719 69.773438 C 45.933594 69.773438 46.117188 69.722656 46.269531 69.609375 Z M 75.277344 65.316406 C 75.433594 64.859375 75.207031 64.351562 74.742188 64.191406 C 74.285156 64.027344 73.785156 64.261719 73.628906 64.71875 C 73.464844 65.175781 73.699219 65.683594 74.15625 65.839844 C 74.25 65.875 74.347656 65.894531 74.453125 65.894531 C 74.8125 65.894531 75.144531 65.664062 75.277344 65.316406 Z M 44.015625 65.777344 C 44.472656 65.613281 44.707031 65.113281 44.550781 64.65625 C 44.394531 64.203125 43.882812 63.964844 43.429688 64.125 C 42.972656 64.289062 42.738281 64.789062 42.894531 65.246094 C 43.027344 65.605469 43.359375 65.832031 43.71875 65.832031 C 43.8125 65.832031 43.917969 65.8125 44.015625 65.777344 Z M 76.230469 60.734375 L 76.242188 60.734375 C 76.265625 60.25 75.90625 59.832031 75.425781 59.804688 C 74.941406 59.769531 74.523438 60.128906 74.488281 60.609375 C 74.453125 61.09375 74.820312 61.511719 75.300781 61.546875 L 75.363281 61.546875 C 75.820312 61.546875 76.207031 61.195312 76.230469 60.734375 Z M 42.886719 61.476562 C 43.367188 61.449219 43.734375 61.03125 43.710938 60.550781 C 43.675781 60.066406 43.253906 59.699219 42.773438 59.734375 C 42.289062 59.761719 41.921875 60.179688 41.957031 60.664062 C 41.984375 61.125 42.378906 61.484375 42.832031 61.484375 C 42.851562 61.484375 42.867188 61.484375 42.886719 61.476562 Z M 75.25 57.105469 C 75.722656 57.007812 76.03125 56.542969 75.933594 56.070312 C 75.835938 55.597656 75.371094 55.292969 74.898438 55.386719 C 74.425781 55.484375 74.121094 55.949219 74.214844 56.421875 C 74.292969 56.832031 74.664062 57.125 75.066406 57.125 C 75.128906 57.125 75.1875 57.113281 75.25 57.105469 Z M 43.988281 56.359375 C 44.085938 55.878906 43.789062 55.414062 43.316406 55.316406 C 42.84375 55.222656 42.378906 55.527344 42.273438 56 C 42.175781 56.472656 42.484375 56.9375 42.957031 57.035156 C 43.019531 57.054688 43.070312 57.054688 43.132812 57.054688 C 43.542969 57.054688 43.902344 56.773438 43.988281 56.359375 Z M 74.003906 52.839844 C 74.433594 52.609375 74.601562 52.085938 74.382812 51.65625 C 74.164062 51.226562 73.628906 51.058594 73.199219 51.28125 C 72.769531 51.5 72.605469 52.03125 72.824219 52.460938 C 72.980469 52.757812 73.289062 52.933594 73.601562 52.933594 C 73.734375 52.933594 73.875 52.898438 74.003906 52.839844 Z M 45.402344 52.398438 C 45.621094 51.972656 45.453125 51.445312 45.03125 51.21875 C 44.59375 51 44.070312 51.164062 43.847656 51.59375 C 43.621094 52.023438 43.789062 52.550781 44.21875 52.777344 C 44.347656 52.839844 44.488281 52.875 44.621094 52.875 C 44.9375 52.875 45.242188 52.699219 45.402344 52.398438 Z M 71.648438 49.0625 C 72 48.738281 72.027344 48.1875 71.691406 47.828125 C 71.367188 47.476562 70.816406 47.449219 70.457031 47.785156 C 70.109375 48.109375 70.082031 48.667969 70.414062 49.019531 C 70.582031 49.203125 70.816406 49.296875 71.054688 49.296875 C 71.261719 49.296875 71.480469 49.21875 71.648438 49.0625 Z M 47.828125 48.976562 C 48.160156 48.617188 48.144531 48.0625 47.785156 47.738281 C 47.433594 47.40625 46.878906 47.425781 46.546875 47.773438 C 46.214844 48.132812 46.234375 48.6875 46.589844 49.019531 C 46.757812 49.175781 46.976562 49.253906 47.1875 49.253906 C 47.425781 49.253906 47.652344 49.160156 47.828125 48.976562 Z M 68.363281 46.066406 C 68.625 45.65625 68.496094 45.113281 68.082031 44.867188 C 67.671875 44.613281 67.128906 44.734375 66.875 45.15625 C 66.621094 45.558594 66.75 46.101562 67.164062 46.355469 C 67.304688 46.441406 67.460938 46.488281 67.617188 46.488281 C 67.917969 46.488281 68.195312 46.335938 68.363281 46.066406 Z M 51.085938 46.320312 C 51.5 46.074219 51.628906 45.53125 51.375 45.121094 C 51.121094 44.707031 50.585938 44.578125 50.175781 44.824219 C 49.761719 45.078125 49.632812 45.621094 49.878906 46.03125 C 50.042969 46.300781 50.332031 46.453125 50.628906 46.453125 C 50.789062 46.453125 50.945312 46.40625 51.085938 46.320312 Z M 64.402344 44.070312 C 64.535156 43.59375 64.265625 43.113281 63.800781 42.980469 C 63.335938 42.851562 62.851562 43.121094 62.710938 43.585938 C 62.582031 44.050781 62.851562 44.53125 63.316406 44.671875 C 63.394531 44.691406 63.484375 44.699219 63.5625 44.699219 C 63.941406 44.699219 64.289062 44.453125 64.402344 44.070312 Z M 54.941406 44.648438 C 55.40625 44.515625 55.675781 44.035156 55.546875 43.570312 C 55.414062 43.105469 54.933594 42.832031 54.46875 42.964844 C 53.996094 43.085938 53.722656 43.578125 53.855469 44.042969 C 53.960938 44.429688 54.320312 44.683594 54.695312 44.683594 C 54.773438 44.683594 54.863281 44.671875 54.941406 44.648438 Z M 59.128906 44.085938 L 59.164062 44.085938 C 59.644531 44.085938 60.039062 43.691406 60.039062 43.210938 C 60.039062 42.726562 59.65625 42.335938 59.164062 42.335938 L 59.09375 42.335938 C 58.613281 42.335938 58.21875 42.726562 58.21875 43.210938 C 58.21875 43.691406 58.613281 44.078125 59.09375 44.078125 L 59.09375 44.085938 Z M 59.128906 44.085938 "/></g></svg>