<svg xmlns="http://www.w3.org/2000/svg" xmlns:xlink="http://www.w3.org/1999/xlink" width="940" zoomAndPan="magnify" viewBox="0 0 705 591.000005" height="788" preserveAspectRatio="xMidYMid meet" version="1.2"><defs><clipPath id="1f48875d10"><path d="M 0.59375 0 L 704.402344 0 L 704.402344 590 L 0.59375 590 Z M 0.59375 0 "/></clipPath><clipPath id="80213e1c0b"><path d="M 131.890625 57 L 138 57 L 138 64 L 131.890625 64 Z M 131.890625 57 "/></clipPath><clipPath id="e34400e064"><path d="M 631 556 L 638 556 L 638 562.128906 L 631 562.128906 Z M 631 556 "/></clipPath><clipPath id="0c857c4923"><path d="M 600 27.53125 L 667.984375 27.53125 L 667.984375 95 L 600 95 Z M 600 27.53125 "/></clipPath></defs><g id="f6d02fcb77"><g clip-rule="nonzero" clip-path="url(#1f48875d10)"><path style=" stroke:none;fill-rule:nonzero;fill:#ffffff;fill-opacity:1;" d="M 0.59375 0 L 704.40625 0 L 704.40625 590 L 0.59375 590 Z M 0.59375 0 "/><path style=" stroke:none;fill-rule:nonzero;fill:#ffffff;fill-opacity:1;" d="M 0.59375 0 L 704.40625 0 L 704.40625 590 L 0.59375 590 Z M 0.59375 0 "/></g><path style=" stroke:none;fill-rule:nonzero;fill:#fff685;fill-opacity:1;" d="M 447.199219 63.757812 L 142.574219 60.777344 L 447.199219 57.792969 C 451.140625 57.863281 451.21875 63.660156 447.199219 63.757812 Z M 447.199219 63.757812 "/><path style=" stroke:none;fill-rule:nonzero;fill:#fff685;fill-opacity:1;" d="M 595.996094 63.757812 L 473.324219 60.777344 L 595.996094 57.792969 C 600.023438 57.828125 600.046875 63.714844 595.996094 63.757812 Z M 595.996094 63.757812 "/><path style=" stroke:none;fill-rule:nonzero;fill:#fff685;fill-opacity:1;" d="M 463.957031 60.816406 C 463.957031 61.207031 463.882812 61.585938 463.730469 61.949219 C 463.582031 62.3125 463.367188 62.632812 463.089844 62.914062 C 462.8125 63.191406 462.488281 63.40625 462.125 63.554688 C 461.761719 63.707031 461.386719 63.78125 460.992188 63.78125 C 460.597656 63.78125 460.21875 63.707031 459.855469 63.554688 C 459.492188 63.40625 459.171875 63.191406 458.894531 62.914062 C 458.617188 62.632812 458.402344 62.3125 458.25 61.949219 C 458.101562 61.585938 458.027344 61.207031 458.027344 60.816406 C 458.027344 60.421875 458.101562 60.042969 458.25 59.679688 C 458.402344 59.316406 458.617188 58.996094 458.894531 58.71875 C 459.171875 58.441406 459.492188 58.226562 459.855469 58.074219 C 460.21875 57.925781 460.597656 57.851562 460.992188 57.851562 C 461.386719 57.851562 461.761719 57.925781 462.125 58.074219 C 462.488281 58.226562 462.8125 58.441406 463.089844 58.71875 C 463.367188 58.996094 463.582031 59.316406 463.730469 59.679688 C 463.882812 60.042969 463.957031 60.421875 463.957031 60.816406 Z M 463.957031 60.816406 "/><g clip-rule="nonzero" clip-path="url(#80213e1c0b)"><path style=" stroke:none;fill-rule:nonzero;fill:#fff685;fill-opacity:1;" d="M 137.832031 60.816406 C 137.832031 61.207031 137.757812 61.585938 137.605469 61.949219 C 137.457031 62.3125 137.242188 62.632812 136.964844 62.914062 C 136.6875 63.191406 136.363281 63.40625 136 63.554688 C 135.636719 63.707031 135.261719 63.78125 134.867188 63.78125 C 134.472656 63.78125 134.09375 63.707031 133.730469 63.554688 C 133.367188 63.40625 133.046875 63.191406 132.769531 62.914062 C 132.492188 62.632812 132.277344 62.3125 132.125 61.949219 C 131.976562 61.585938 131.902344 61.207031 131.902344 60.816406 C 131.902344 60.421875 131.976562 60.042969 132.125 59.679688 C 132.277344 59.316406 132.492188 58.996094 132.769531 58.71875 C 133.046875 58.441406 133.367188 58.226562 133.730469 58.074219 C 134.09375 57.925781 134.472656 57.851562 134.867188 57.851562 C 135.261719 57.851562 135.636719 57.925781 136 58.074219 C 136.363281 58.226562 136.6875 58.441406 136.964844 58.71875 C 137.242188 58.996094 137.457031 59.316406 137.605469 59.679688 C 137.757812 60.042969 137.832031 60.421875 137.832031 60.816406 Z M 137.832031 60.816406 "/></g><path style=" stroke:none;fill-rule:nonzero;fill:#fff685;fill-opacity:1;" d="M 455.625 60.816406 C 455.625 61 455.589844 61.175781 455.519531 61.34375 C 455.449219 61.515625 455.347656 61.664062 455.21875 61.792969 C 455.089844 61.921875 454.941406 62.023438 454.769531 62.09375 C 454.601562 62.164062 454.425781 62.199219 454.242188 62.199219 C 454.058594 62.199219 453.882812 62.164062 453.710938 62.09375 C 453.542969 62.023438 453.394531 61.921875 453.261719 61.792969 C 453.132812 61.664062 453.035156 61.515625 452.964844 61.34375 C 452.894531 61.175781 452.859375 61 452.859375 60.816406 C 452.859375 60.632812 452.894531 60.457031 452.964844 60.285156 C 453.035156 60.117188 453.132812 59.96875 453.261719 59.835938 C 453.394531 59.707031 453.542969 59.609375 453.710938 59.539062 C 453.882812 59.46875 454.058594 59.433594 454.242188 59.433594 C 454.425781 59.433594 454.601562 59.46875 454.769531 59.539062 C 454.941406 59.609375 455.089844 59.707031 455.21875 59.835938 C 455.347656 59.96875 455.449219 60.117188 455.519531 60.285156 C 455.589844 60.457031 455.625 60.632812 455.625 60.816406 Z M 455.625 60.816406 "/><path style=" stroke:none;fill-rule:nonzero;fill:#fff685;fill-opacity:1;" d="M 468.6875 60.816406 C 468.6875 61 468.652344 61.175781 468.582031 61.34375 C 468.511719 61.515625 468.410156 61.664062 468.28125 61.792969 C 468.152344 61.921875 468 62.023438 467.832031 62.09375 C 467.664062 62.164062 467.488281 62.199219 467.304688 62.199219 C 467.121094 62.199219 466.945312 62.164062 466.773438 62.09375 C 466.605469 62.023438 466.457031 61.921875 466.324219 61.792969 C 466.195312 61.664062 466.097656 61.515625 466.027344 61.34375 C 465.957031 61.175781 465.921875 61 465.921875 60.816406 C 465.921875 60.632812 465.957031 60.457031 466.027344 60.285156 C 466.097656 60.117188 466.195312 59.96875 466.324219 59.835938 C 466.457031 59.707031 466.605469 59.609375 466.773438 59.539062 C 466.945312 59.46875 467.121094 59.433594 467.304688 59.433594 C 467.488281 59.433594 467.664062 59.46875 467.832031 59.539062 C 468 59.609375 468.152344 59.707031 468.28125 59.835938 C 468.410156 59.96875 468.511719 60.117188 468.582031 60.285156 C 468.652344 60.457031 468.6875 60.632812 468.6875 60.816406 Z M 468.6875 60.816406 "/><path style=" stroke:none;fill-rule:nonzero;fill:#fff685;fill-opacity:1;" d="M 637.265625 246.824219 L 634.285156 551.449219 L 631.300781 246.824219 C 631.375 242.886719 637.167969 242.808594 637.265625 246.824219 Z M 637.265625 246.824219 "/><path style=" stroke:none;fill-rule:nonzero;fill:#fff685;fill-opacity:1;" d="M 637.265625 98.027344 L 634.285156 220.703125 L 631.300781 98.027344 C 631.335938 94.003906 637.222656 93.976562 637.265625 98.027344 Z M 637.265625 98.027344 "/><path style=" stroke:none;fill-rule:nonzero;fill:#fff685;fill-opacity:1;" d="M 637.210938 233.035156 C 637.210938 233.425781 637.136719 233.804688 636.984375 234.167969 C 636.832031 234.53125 636.621094 234.851562 636.339844 235.132812 C 636.0625 235.410156 635.742188 235.625 635.378906 235.773438 C 635.015625 235.925781 634.636719 236 634.246094 236 C 633.851562 236 633.472656 235.925781 633.109375 235.773438 C 632.746094 235.625 632.425781 235.410156 632.148438 235.132812 C 631.867188 234.851562 631.65625 234.53125 631.503906 234.167969 C 631.355469 233.804688 631.277344 233.425781 631.277344 233.035156 C 631.277344 232.640625 631.355469 232.261719 631.503906 231.898438 C 631.65625 231.535156 631.867188 231.214844 632.148438 230.9375 C 632.425781 230.660156 632.746094 230.445312 633.109375 230.292969 C 633.472656 230.144531 633.851562 230.070312 634.246094 230.070312 C 634.636719 230.070312 635.015625 230.144531 635.378906 230.292969 C 635.742188 230.445312 636.0625 230.660156 636.339844 230.9375 C 636.621094 231.214844 636.832031 231.535156 636.984375 231.898438 C 637.136719 232.261719 637.210938 232.640625 637.210938 233.035156 Z M 637.210938 233.035156 "/><g clip-rule="nonzero" clip-path="url(#e34400e064)"><path style=" stroke:none;fill-rule:nonzero;fill:#fff685;fill-opacity:1;" d="M 637.210938 559.160156 C 637.210938 559.550781 637.136719 559.929688 636.984375 560.292969 C 636.832031 560.65625 636.621094 560.976562 636.339844 561.257812 C 636.0625 561.535156 635.742188 561.75 635.378906 561.898438 C 635.015625 562.050781 634.636719 562.125 634.246094 562.125 C 633.851562 562.125 633.472656 562.050781 633.109375 561.898438 C 632.746094 561.75 632.425781 561.535156 632.148438 561.257812 C 631.867188 560.976562 631.65625 560.65625 631.503906 560.292969 C 631.355469 559.929688 631.277344 559.550781 631.277344 559.160156 C 631.277344 558.765625 631.355469 558.386719 631.503906 558.023438 C 631.65625 557.660156 631.867188 557.339844 632.148438 557.0625 C 632.425781 556.785156 632.746094 556.570312 633.109375 556.417969 C 633.472656 556.269531 633.851562 556.195312 634.246094 556.195312 C 634.636719 556.195312 635.015625 556.269531 635.378906 556.417969 C 635.742188 556.570312 636.0625 556.785156 636.339844 557.0625 C 636.621094 557.339844 636.832031 557.660156 636.984375 558.023438 C 637.136719 558.386719 637.210938 558.765625 637.210938 559.160156 Z M 637.210938 559.160156 "/></g><path style=" stroke:none;fill-rule:nonzero;fill:#fff685;fill-opacity:1;" d="M 635.628906 239.785156 C 635.628906 239.96875 635.59375 240.144531 635.523438 240.3125 C 635.453125 240.484375 635.351562 240.632812 635.222656 240.761719 C 635.09375 240.894531 634.941406 240.992188 634.773438 241.0625 C 634.605469 241.132812 634.425781 241.167969 634.246094 241.167969 C 634.0625 241.167969 633.882812 241.132812 633.714844 241.0625 C 633.546875 240.992188 633.394531 240.894531 633.265625 240.761719 C 633.136719 240.632812 633.035156 240.484375 632.964844 240.3125 C 632.898438 240.144531 632.863281 239.96875 632.863281 239.785156 C 632.863281 239.601562 632.898438 239.425781 632.964844 239.257812 C 633.035156 239.085938 633.136719 238.9375 633.265625 238.808594 C 633.394531 238.675781 633.546875 238.578125 633.714844 238.507812 C 633.882812 238.4375 634.0625 238.402344 634.246094 238.402344 C 634.425781 238.402344 634.605469 238.4375 634.773438 238.507812 C 634.941406 238.578125 635.09375 238.675781 635.222656 238.808594 C 635.351562 238.9375 635.453125 239.085938 635.523438 239.257812 C 635.59375 239.425781 635.628906 239.601562 635.628906 239.785156 Z M 635.628906 239.785156 "/><path style=" stroke:none;fill-rule:nonzero;fill:#fff685;fill-opacity:1;" d="M 635.628906 226.722656 C 635.628906 226.90625 635.59375 227.082031 635.523438 227.253906 C 635.453125 227.421875 635.351562 227.570312 635.222656 227.699219 C 635.09375 227.832031 634.941406 227.929688 634.773438 228 C 634.605469 228.070312 634.425781 228.105469 634.246094 228.105469 C 634.0625 228.105469 633.882812 228.070312 633.714844 228 C 633.546875 227.929688 633.394531 227.832031 633.265625 227.699219 C 633.136719 227.570312 633.035156 227.421875 632.964844 227.253906 C 632.898438 227.082031 632.863281 226.90625 632.863281 226.722656 C 632.863281 226.539062 632.898438 226.363281 632.964844 226.195312 C 633.035156 226.023438 633.136719 225.875 633.265625 225.746094 C 633.394531 225.617188 633.546875 225.515625 633.714844 225.445312 C 633.882812 225.375 634.0625 225.339844 634.246094 225.339844 C 634.425781 225.339844 634.605469 225.375 634.773438 225.445312 C 634.941406 225.515625 635.09375 225.617188 635.222656 225.746094 C 635.351562 225.875 635.453125 226.023438 635.523438 226.195312 C 635.59375 226.363281 635.628906 226.539062 635.628906 226.722656 Z M 635.628906 226.722656 "/><path style=" stroke:none;fill-rule:nonzero;fill:#fff685;fill-opacity:1;" d="M 656.148438 60.921875 C 641.742188 61.84375 638.386719 62.589844 634.246094 65.800781 C 630.105469 62.589844 626.746094 61.84375 612.339844 60.921875 C 626.746094 59.996094 630.105469 59.25 634.246094 56.039062 C 638.386719 59.25 641.742188 59.996094 656.148438 60.921875 Z M 656.148438 60.921875 "/><path style=" stroke:none;fill-rule:nonzero;fill:#fff685;fill-opacity:1;" d="M 634.246094 82.824219 C 633.320312 68.417969 632.574219 65.0625 629.363281 60.921875 C 632.574219 56.78125 633.320312 53.421875 634.246094 39.015625 C 635.167969 53.421875 635.914062 56.78125 639.125 60.921875 C 635.914062 65.0625 635.167969 68.417969 634.246094 82.824219 Z M 634.246094 82.824219 "/><g clip-rule="nonzero" clip-path="url(#0c857c4923)"><path style=" stroke:none;fill-rule:nonzero;fill:#fff685;fill-opacity:1;" d="M 628.367188 94.054688 C 626.972656 93.808594 626.042969 92.488281 626.289062 91.097656 C 626.527344 89.703125 627.847656 88.773438 629.238281 89.019531 C 630.636719 89.257812 631.566406 90.578125 631.324219 91.96875 C 631.105469 93.222656 630.023438 94.089844 628.804688 94.089844 C 628.660156 94.089844 628.515625 94.082031 628.367188 94.054688 Z M 637.070312 91.96875 C 636.832031 90.578125 637.757812 89.25 639.148438 89.011719 C 640.539062 88.765625 641.867188 89.695312 642.113281 91.082031 C 642.351562 92.472656 641.421875 93.800781 640.035156 94.039062 L 640.035156 94.046875 C 639.882812 94.074219 639.738281 94.082031 639.59375 94.082031 C 638.371094 94.082031 637.289062 93.214844 637.070312 91.96875 Z M 617.382812 90.078125 C 616.164062 89.367188 615.738281 87.800781 616.445312 86.582031 C 617.152344 85.355469 618.714844 84.9375 619.941406 85.644531 C 621.160156 86.351562 621.585938 87.910156 620.878906 89.140625 C 620.402344 89.957031 619.539062 90.417969 618.652344 90.417969 C 618.226562 90.417969 617.785156 90.308594 617.382812 90.078125 Z M 647.515625 89.113281 C 646.808594 87.886719 647.21875 86.328125 648.445312 85.621094 C 649.664062 84.914062 651.234375 85.332031 651.9375 86.546875 C 652.648438 87.765625 652.230469 89.335938 651.003906 90.042969 C 650.601562 90.273438 650.160156 90.382812 649.722656 90.382812 C 648.847656 90.382812 647.984375 89.929688 647.515625 89.113281 Z M 608.4375 82.578125 C 607.523438 81.503906 607.660156 79.882812 608.742188 78.972656 C 609.824219 78.0625 611.4375 78.207031 612.347656 79.28125 C 613.25 80.363281 613.113281 81.980469 612.042969 82.882812 C 611.5625 83.292969 610.976562 83.488281 610.394531 83.488281 C 609.664062 83.488281 608.9375 83.175781 608.4375 82.578125 Z M 656.335938 82.851562 C 655.253906 81.9375 655.117188 80.328125 656.019531 79.246094 C 656.933594 78.164062 658.542969 78.027344 659.625 78.929688 C 660.707031 79.832031 660.84375 81.453125 659.941406 82.527344 C 659.4375 83.132812 658.714844 83.445312 657.980469 83.445312 C 657.402344 83.445312 656.8125 83.25 656.335938 82.851562 Z M 602.574219 72.480469 C 602.085938 71.160156 602.769531 69.683594 604.097656 69.207031 C 605.429688 68.722656 606.894531 69.402344 607.378906 70.722656 C 607.863281 72.054688 607.183594 73.519531 605.855469 74.003906 C 605.5625 74.117188 605.265625 74.15625 604.976562 74.15625 C 603.9375 74.15625 602.957031 73.519531 602.574219 72.480469 Z M 662.507812 73.953125 C 661.175781 73.46875 660.496094 72 660.980469 70.671875 C 661.457031 69.34375 662.925781 68.660156 664.253906 69.148438 C 665.582031 69.625 666.265625 71.089844 665.785156 72.417969 C 665.402344 73.460938 664.425781 74.105469 663.375 74.105469 C 663.085938 74.105469 662.796875 74.054688 662.507812 73.953125 Z M 600.535156 60.984375 C 600.535156 59.578125 601.679688 58.425781 603.085938 58.425781 C 604.5 58.425781 605.640625 59.570312 605.648438 60.976562 C 605.648438 62.390625 604.507812 63.539062 603.101562 63.539062 C 601.6875 63.539062 600.535156 62.398438 600.535156 60.984375 Z M 662.695312 60.914062 L 662.695312 60.804688 C 662.683594 59.390625 663.828125 58.238281 665.234375 58.238281 C 666.648438 58.230469 667.796875 59.375 667.808594 60.789062 C 667.808594 60.8125 667.796875 60.832031 667.796875 60.855469 C 667.796875 60.882812 667.808594 60.898438 667.808594 60.914062 C 667.808594 62.332031 666.65625 63.480469 665.25 63.480469 C 663.835938 63.480469 662.695312 62.332031 662.695312 60.914062 Z M 604.066406 52.761719 C 602.734375 52.273438 602.054688 50.808594 602.53125 49.480469 C 603.007812 48.148438 604.472656 47.46875 605.804688 47.945312 C 607.132812 48.429688 607.824219 49.898438 607.335938 51.21875 C 606.960938 52.265625 605.980469 52.914062 604.933594 52.914062 C 604.644531 52.914062 604.355469 52.863281 604.066406 52.761719 Z M 660.9375 51.066406 C 660.453125 49.734375 661.132812 48.261719 662.457031 47.773438 C 663.785156 47.289062 665.25 47.972656 665.734375 49.292969 C 666.222656 50.613281 665.550781 52.085938 664.226562 52.582031 C 663.929688 52.683594 663.632812 52.734375 663.34375 52.734375 C 662.300781 52.734375 661.320312 52.097656 660.9375 51.066406 Z M 608.675781 42.960938 C 607.59375 42.058594 607.449219 40.4375 608.351562 39.355469 C 609.261719 38.28125 610.875 38.128906 611.957031 39.039062 C 613.039062 39.941406 613.183594 41.554688 612.28125 42.636719 L 612.28125 42.644531 C 611.769531 43.242188 611.042969 43.554688 610.3125 43.554688 C 609.730469 43.554688 609.152344 43.359375 608.675781 42.960938 Z M 655.953125 42.507812 C 655.042969 41.433594 655.179688 39.824219 656.25 38.910156 C 657.332031 38 658.945312 38.128906 659.855469 39.210938 L 659.863281 39.210938 C 660.769531 40.285156 660.632812 41.902344 659.558594 42.816406 C 659.082031 43.214844 658.492188 43.410156 657.90625 43.410156 C 657.179688 43.410156 656.457031 43.105469 655.953125 42.507812 Z M 616.34375 35.332031 C 615.636719 34.105469 616.046875 32.546875 617.273438 31.832031 C 618.492188 31.125 620.058594 31.53125 620.765625 32.757812 C 621.484375 33.976562 621.066406 35.539062 619.847656 36.253906 C 619.4375 36.484375 618.996094 36.59375 618.558594 36.59375 C 617.683594 36.59375 616.820312 36.140625 616.34375 35.332031 Z M 648.351562 36.167969 C 647.125 35.460938 646.699219 33.902344 647.40625 32.675781 C 648.105469 31.457031 649.671875 31.03125 650.890625 31.738281 L 650.890625 31.726562 C 652.117188 32.4375 652.546875 33.996094 651.835938 35.222656 C 651.367188 36.050781 650.507812 36.507812 649.621094 36.507812 C 649.1875 36.507812 648.753906 36.398438 648.351562 36.167969 Z M 626.171875 30.773438 C 625.914062 29.386719 626.84375 28.054688 628.242188 27.808594 C 629.628906 27.5625 630.949219 28.492188 631.207031 29.878906 C 631.453125 31.269531 630.523438 32.597656 629.136719 32.84375 C 628.980469 32.871094 628.828125 32.878906 628.683594 32.878906 C 627.464844 32.878906 626.382812 32.011719 626.171875 30.773438 Z M 639.039062 32.8125 C 637.648438 32.574219 636.710938 31.25 636.949219 29.863281 C 637.1875 28.464844 638.507812 27.535156 639.90625 27.773438 C 641.296875 28.011719 642.226562 29.335938 641.984375 30.722656 C 641.773438 31.96875 640.699219 32.855469 639.472656 32.855469 C 639.335938 32.855469 639.183594 32.835938 639.039062 32.8125 Z M 639.039062 32.8125 "/></g><path style=" stroke:none;fill-rule:nonzero;fill:#fff685;fill-opacity:1;" d="M 632.101562 86.191406 C 631.164062 86.113281 630.464844 85.285156 630.542969 84.351562 C 630.617188 83.414062 631.4375 82.714844 632.375 82.789062 C 633.3125 82.867188 634.011719 83.683594 633.941406 84.632812 C 633.863281 85.519531 633.125 86.191406 632.246094 86.191406 Z M 638.339844 84.265625 C 638.109375 83.351562 638.664062 82.425781 639.574219 82.195312 C 640.488281 81.964844 641.414062 82.507812 641.644531 83.429688 C 641.875 84.339844 641.320312 85.261719 640.410156 85.5 C 640.273438 85.535156 640.128906 85.550781 639.992188 85.550781 C 639.234375 85.550781 638.535156 85.03125 638.339844 84.265625 Z M 624.003906 84.15625 L 624.015625 84.15625 C 623.144531 83.777344 622.753906 82.773438 623.128906 81.902344 C 623.511719 81.042969 624.515625 80.652344 625.378906 81.035156 C 626.238281 81.410156 626.628906 82.414062 626.253906 83.277344 C 625.972656 83.914062 625.351562 84.300781 624.695312 84.300781 C 624.464844 84.300781 624.226562 84.246094 624.003906 84.15625 Z M 645.695312 81.648438 C 645.171875 80.855469 645.394531 79.800781 646.179688 79.289062 C 646.972656 78.769531 648.027344 78.988281 648.539062 79.78125 C 649.058594 80.566406 648.835938 81.621094 648.054688 82.132812 C 647.765625 82.332031 647.433594 82.414062 647.117188 82.414062 C 646.5625 82.414062 646.015625 82.144531 645.695312 81.648438 Z M 617.027344 79.59375 C 616.328125 78.957031 616.285156 77.882812 616.921875 77.183594 C 617.554688 76.492188 618.636719 76.441406 619.328125 77.082031 C 620.027344 77.71875 620.070312 78.792969 619.429688 79.492188 C 619.097656 79.859375 618.636719 80.046875 618.175781 80.046875 C 617.765625 80.046875 617.351562 79.894531 617.027344 79.59375 Z M 651.785156 76.78125 C 651.042969 76.203125 650.917969 75.136719 651.496094 74.398438 L 651.496094 74.386719 C 652.066406 73.648438 653.140625 73.519531 653.882812 74.097656 C 654.625 74.679688 654.761719 75.742188 654.179688 76.484375 C 653.847656 76.917969 653.34375 77.140625 652.835938 77.140625 C 652.46875 77.140625 652.101562 77.03125 651.785156 76.78125 Z M 611.886719 73.023438 C 611.4375 72.199219 611.742188 71.160156 612.570312 70.714844 C 613.394531 70.261719 614.433594 70.570312 614.878906 71.398438 C 615.328125 72.222656 615.023438 73.253906 614.199219 73.707031 C 613.941406 73.851562 613.660156 73.910156 613.386719 73.910156 C 612.78125 73.910156 612.195312 73.59375 611.886719 73.023438 Z M 655.988281 70.210938 C 655.101562 69.90625 654.625 68.933594 654.929688 68.046875 C 655.238281 67.152344 656.210938 66.675781 657.09375 66.984375 C 657.980469 67.289062 658.457031 68.261719 658.152344 69.148438 C 657.914062 69.863281 657.25 70.308594 656.542969 70.308594 C 656.363281 70.308594 656.175781 70.273438 655.988281 70.210938 Z M 609.167969 65.140625 C 609.007812 64.203125 609.636719 63.328125 610.566406 63.175781 C 611.496094 63.019531 612.375 63.640625 612.527344 64.570312 L 612.527344 64.578125 C 612.679688 65.5 612.058594 66.378906 611.128906 66.539062 C 611.035156 66.546875 610.933594 66.558594 610.839844 66.558594 C 610.03125 66.558594 609.304688 65.96875 609.167969 65.140625 Z M 656.113281 60.914062 L 656.113281 60.832031 C 656.105469 59.890625 656.863281 59.125 657.8125 59.117188 C 658.75 59.117188 659.515625 59.875 659.515625 60.8125 L 659.515625 60.914062 L 659.523438 60.914062 C 659.523438 61.863281 658.757812 62.628906 657.820312 62.628906 C 656.875 62.628906 656.113281 61.863281 656.113281 60.914062 Z M 610.558594 58.757812 C 609.628906 58.605469 609 57.726562 609.152344 56.800781 C 609.304688 55.871094 610.175781 55.238281 611.113281 55.394531 C 612.03125 55.546875 612.664062 56.425781 612.507812 57.355469 L 612.507812 57.34375 C 612.375 58.1875 611.648438 58.777344 610.832031 58.777344 C 610.738281 58.777344 610.652344 58.777344 610.558594 58.757812 Z M 654.90625 53.714844 C 654.589844 52.828125 655.066406 51.855469 655.953125 51.550781 C 656.839844 51.234375 657.8125 51.703125 658.125 52.597656 C 658.433594 53.484375 657.957031 54.457031 657.070312 54.761719 C 656.882812 54.832031 656.695312 54.855469 656.515625 54.855469 C 655.808594 54.855469 655.144531 54.421875 654.90625 53.714844 Z M 612.535156 51.210938 C 611.699219 50.765625 611.394531 49.726562 611.84375 48.898438 C 612.289062 48.074219 613.320312 47.757812 614.152344 48.210938 C 614.980469 48.652344 615.289062 49.691406 614.84375 50.519531 C 614.539062 51.089844 613.949219 51.414062 613.335938 51.414062 C 613.0625 51.414062 612.789062 51.347656 612.535156 51.210938 Z M 651.4375 47.382812 L 651.445312 47.382812 C 650.855469 46.640625 650.984375 45.566406 651.726562 44.988281 C 652.46875 44.410156 653.542969 44.535156 654.121094 45.277344 C 654.699219 46.019531 654.574219 47.085938 653.832031 47.671875 C 653.515625 47.910156 653.148438 48.03125 652.78125 48.03125 C 652.273438 48.03125 651.777344 47.808594 651.4375 47.382812 Z M 616.863281 44.714844 C 616.214844 44.023438 616.257812 42.953125 616.949219 42.3125 C 617.640625 41.664062 618.722656 41.707031 619.359375 42.40625 C 620 43.097656 619.957031 44.167969 619.265625 44.808594 C 618.933594 45.117188 618.527344 45.261719 618.109375 45.261719 C 617.648438 45.261719 617.195312 45.082031 616.863281 44.714844 Z M 646.109375 42.507812 C 645.316406 41.988281 645.097656 40.941406 645.609375 40.148438 C 646.121094 39.355469 647.175781 39.132812 647.96875 39.644531 C 648.753906 40.15625 648.980469 41.214844 648.472656 42.007812 C 648.136719 42.507812 647.59375 42.78125 647.039062 42.78125 C 646.714844 42.78125 646.390625 42.6875 646.109375 42.507812 Z M 623.050781 39.976562 C 622.667969 39.109375 623.058594 38.101562 623.921875 37.726562 C 624.78125 37.34375 625.785156 37.734375 626.171875 38.597656 C 626.554688 39.457031 626.160156 40.464844 625.300781 40.847656 C 625.078125 40.941406 624.839844 40.992188 624.609375 40.992188 C 623.953125 40.992188 623.332031 40.609375 623.050781 39.976562 Z M 639.488281 39.628906 C 638.578125 39.398438 638.023438 38.46875 638.246094 37.558594 C 638.476562 36.644531 639.394531 36.089844 640.316406 36.3125 C 641.226562 36.542969 641.78125 37.472656 641.558594 38.382812 C 641.363281 39.160156 640.664062 39.679688 639.898438 39.679688 C 639.761719 39.679688 639.625 39.664062 639.488281 39.628906 Z M 630.449219 37.5 C 630.371094 36.558594 631.0625 35.742188 632 35.65625 C 632.9375 35.582031 633.761719 36.277344 633.839844 37.21875 C 633.925781 38.152344 633.226562 38.980469 632.289062 39.058594 C 632.246094 39.058594 632.195312 39.066406 632.152344 39.066406 C 631.265625 39.066406 630.523438 38.394531 630.449219 37.5 Z M 630.449219 37.5 "/><path style=" stroke:none;fill-rule:nonzero;fill:#fff685;fill-opacity:1;" d="M 631.929688 77.480469 C 631.460938 77.421875 631.136719 76.988281 631.199219 76.527344 C 631.257812 76.058594 631.691406 75.726562 632.160156 75.792969 L 632.152344 75.792969 C 632.621094 75.855469 632.953125 76.28125 632.894531 76.75 C 632.832031 77.175781 632.46875 77.488281 632.042969 77.488281 C 632.007812 77.488281 631.964844 77.488281 631.929688 77.480469 Z M 635.519531 76.75 C 635.449219 76.28125 635.773438 75.847656 636.242188 75.785156 C 636.710938 75.71875 637.136719 76.050781 637.207031 76.511719 C 637.265625 76.976562 636.941406 77.40625 636.472656 77.472656 C 636.4375 77.472656 636.394531 77.480469 636.363281 77.480469 C 635.9375 77.480469 635.578125 77.175781 635.519531 76.75 Z M 627.542969 76.261719 C 627.117188 76.074219 626.910156 75.582031 627.097656 75.148438 C 627.285156 74.710938 627.789062 74.515625 628.222656 74.703125 C 628.648438 74.890625 628.855469 75.386719 628.667969 75.820312 C 628.523438 76.144531 628.214844 76.339844 627.882812 76.339844 C 627.773438 76.339844 627.652344 76.3125 627.542969 76.261719 Z M 639.738281 75.800781 C 639.550781 75.367188 639.746094 74.867188 640.171875 74.679688 C 640.605469 74.488281 641.109375 74.6875 641.296875 75.113281 C 641.484375 75.546875 641.285156 76.050781 640.851562 76.238281 C 640.742188 76.289062 640.632812 76.304688 640.511719 76.304688 C 640.1875 76.304688 639.875 76.117188 639.738281 75.800781 Z M 623.65625 73.910156 C 623.289062 73.613281 623.230469 73.078125 623.527344 72.710938 C 623.828125 72.34375 624.363281 72.28125 624.730469 72.582031 C 625.097656 72.878906 625.148438 73.417969 624.847656 73.78125 C 624.6875 73.988281 624.441406 74.097656 624.191406 74.097656 C 624.003906 74.097656 623.808594 74.039062 623.65625 73.910156 Z M 643.539062 73.75 C 643.238281 73.382812 643.289062 72.847656 643.65625 72.546875 C 644.023438 72.25 644.558594 72.300781 644.859375 72.667969 C 645.15625 73.03125 645.097656 73.570312 644.738281 73.859375 L 644.738281 73.867188 C 644.578125 73.996094 644.390625 74.054688 644.203125 74.054688 C 643.945312 74.054688 643.707031 73.953125 643.539062 73.75 Z M 620.546875 70.597656 C 620.265625 70.210938 620.359375 69.675781 620.742188 69.402344 C 621.125 69.128906 621.652344 69.222656 621.933594 69.609375 L 621.925781 69.609375 C 622.207031 69.992188 622.113281 70.519531 621.730469 70.792969 C 621.578125 70.902344 621.40625 70.953125 621.234375 70.953125 C 620.972656 70.953125 620.707031 70.824219 620.546875 70.597656 Z M 646.648438 70.742188 C 646.265625 70.46875 646.171875 69.941406 646.441406 69.554688 C 646.714844 69.171875 647.242188 69.078125 647.628906 69.351562 C 648.019531 69.625 648.105469 70.152344 647.839844 70.535156 C 647.671875 70.773438 647.40625 70.902344 647.140625 70.902344 C 646.972656 70.902344 646.792969 70.851562 646.648438 70.742188 Z M 618.433594 66.566406 C 618.277344 66.121094 618.5 65.628906 618.953125 65.472656 C 619.394531 65.3125 619.882812 65.542969 620.035156 65.984375 C 620.195312 66.429688 619.964844 66.921875 619.523438 67.078125 C 619.429688 67.109375 619.335938 67.128906 619.234375 67.128906 C 618.882812 67.128906 618.558594 66.90625 618.433594 66.566406 Z M 648.835938 67.015625 C 648.394531 66.855469 648.164062 66.371094 648.316406 65.925781 C 648.472656 65.484375 648.964844 65.253906 649.410156 65.40625 C 649.851562 65.566406 650.082031 66.054688 649.929688 66.496094 C 649.800781 66.847656 649.476562 67.066406 649.128906 67.066406 C 649.035156 67.066406 648.933594 67.050781 648.835938 67.015625 Z M 617.503906 62.109375 L 617.496094 62.109375 C 617.46875 61.640625 617.820312 61.230469 618.289062 61.203125 C 618.757812 61.171875 619.164062 61.519531 619.199219 61.988281 C 619.234375 62.457031 618.875 62.867188 618.40625 62.902344 L 618.347656 62.902344 C 617.902344 62.902344 617.527344 62.558594 617.503906 62.109375 Z M 649.9375 62.832031 C 649.46875 62.808594 649.109375 62.398438 649.136719 61.929688 C 649.167969 61.460938 649.578125 61.101562 650.046875 61.136719 C 650.515625 61.164062 650.875 61.570312 650.839844 62.039062 C 650.816406 62.492188 650.429688 62.839844 649.988281 62.839844 C 649.972656 62.839844 649.953125 62.839844 649.9375 62.832031 Z M 618.457031 58.582031 C 617.996094 58.488281 617.699219 58.035156 617.792969 57.574219 C 617.886719 57.113281 618.339844 56.816406 618.796875 56.910156 C 619.257812 57.003906 619.558594 57.457031 619.464844 57.917969 C 619.386719 58.316406 619.027344 58.597656 618.636719 58.597656 C 618.578125 58.597656 618.515625 58.589844 618.457031 58.582031 Z M 648.863281 57.855469 C 648.769531 57.386719 649.058594 56.9375 649.519531 56.839844 C 649.980469 56.75 650.429688 57.046875 650.535156 57.507812 C 650.628906 57.96875 650.328125 58.417969 649.867188 58.511719 C 649.808594 58.53125 649.757812 58.53125 649.699219 58.53125 C 649.296875 58.53125 648.949219 58.257812 648.863281 57.855469 Z M 619.667969 54.429688 C 619.25 54.207031 619.089844 53.699219 619.300781 53.28125 C 619.515625 52.863281 620.035156 52.699219 620.453125 52.914062 C 620.867188 53.125 621.03125 53.644531 620.816406 54.0625 C 620.664062 54.351562 620.367188 54.523438 620.058594 54.523438 C 619.933594 54.523438 619.796875 54.488281 619.667969 54.429688 Z M 647.492188 54.003906 C 647.277344 53.585938 647.441406 53.074219 647.847656 52.855469 C 648.273438 52.640625 648.785156 52.804688 649 53.21875 C 649.222656 53.636719 649.058594 54.148438 648.640625 54.371094 C 648.515625 54.429688 648.378906 54.464844 648.25 54.464844 C 647.941406 54.464844 647.644531 54.292969 647.492188 54.003906 Z M 621.960938 50.757812 C 621.621094 50.441406 621.59375 49.90625 621.917969 49.554688 C 622.234375 49.214844 622.769531 49.191406 623.121094 49.511719 C 623.460938 49.828125 623.484375 50.375 623.160156 50.714844 C 623 50.894531 622.769531 50.988281 622.539062 50.988281 C 622.335938 50.988281 622.121094 50.910156 621.960938 50.757812 Z M 645.132812 50.671875 C 644.808594 50.324219 644.824219 49.785156 645.171875 49.472656 C 645.515625 49.148438 646.050781 49.164062 646.375 49.503906 C 646.699219 49.855469 646.679688 50.390625 646.332031 50.714844 C 646.171875 50.867188 645.957031 50.945312 645.753906 50.945312 C 645.523438 50.945312 645.300781 50.851562 645.132812 50.671875 Z M 625.15625 47.84375 C 624.898438 47.441406 625.027344 46.914062 625.429688 46.675781 C 625.828125 46.429688 626.355469 46.546875 626.605469 46.957031 C 626.851562 47.347656 626.722656 47.878906 626.324219 48.125 C 626.1875 48.210938 626.035156 48.25 625.878906 48.25 C 625.589844 48.25 625.316406 48.105469 625.15625 47.84375 Z M 641.960938 48.089844 C 641.558594 47.851562 641.433594 47.324219 641.679688 46.921875 C 641.925781 46.523438 642.445312 46.394531 642.847656 46.632812 C 643.246094 46.878906 643.375 47.410156 643.136719 47.808594 C 642.976562 48.074219 642.695312 48.21875 642.402344 48.21875 C 642.25 48.21875 642.097656 48.175781 641.960938 48.089844 Z M 629.007812 45.898438 C 628.878906 45.441406 629.144531 44.972656 629.59375 44.84375 C 630.046875 44.714844 630.515625 44.980469 630.652344 45.429688 C 630.78125 45.882812 630.515625 46.351562 630.0625 46.488281 C 629.988281 46.503906 629.902344 46.511719 629.824219 46.511719 C 629.460938 46.511719 629.117188 46.273438 629.007812 45.898438 Z M 638.210938 46.460938 C 637.757812 46.335938 637.496094 45.867188 637.621094 45.414062 C 637.75 44.964844 638.21875 44.699219 638.671875 44.828125 C 639.132812 44.945312 639.394531 45.421875 639.269531 45.875 C 639.164062 46.25 638.816406 46.496094 638.449219 46.496094 C 638.371094 46.496094 638.289062 46.488281 638.210938 46.460938 Z M 634.136719 45.917969 L 634.105469 45.917969 C 633.636719 45.917969 633.25 45.535156 633.25 45.066406 C 633.25 44.597656 633.625 44.214844 634.105469 44.214844 L 634.171875 44.214844 C 634.640625 44.214844 635.023438 44.597656 635.023438 45.066406 C 635.023438 45.535156 634.640625 45.910156 634.171875 45.910156 L 634.171875 45.917969 Z M 634.136719 45.917969 "/></g></svg>